<svg width="25" height="24" viewBox="0 0 25 24" fill="none" xmlns="http://www.w3.org/2000/svg">
<g id="icon / pills">
<path id="Oval" fill-rule="evenodd" clip-rule="evenodd" d="M6.75 12.75C10.0637 12.75 12.75 10.0637 12.75 6.75C12.75 3.43629 10.0637 0.75 6.75 0.75C3.43629 0.75 0.75 3.43629 0.75 6.75C0.75 10.0637 3.43629 12.75 6.75 12.75Z" stroke="white" stroke-width="1.5" stroke-linecap="round" stroke-linejoin="round"/>
<path id="Shape" d="M0.938965 5.25H12.561" stroke="white" stroke-width="1.5" stroke-linecap="round" stroke-linejoin="round"/>
<path id="Shape_2" d="M0.938965 8.25H12.561" stroke="white" stroke-width="1.5" stroke-linecap="round" stroke-linejoin="round"/>
<path id="Shape_3" fill-rule="evenodd" clip-rule="evenodd" d="M15.788 22.1521C14.3105 23.5289 12.008 23.4882 10.5799 22.0602C9.15186 20.6321 9.11123 18.3296 10.488 16.8521L16.852 10.4881C17.7869 9.48481 19.1948 9.07183 20.5235 9.41115C21.8521 9.75047 22.8896 10.788 23.229 12.1166C23.5683 13.4453 23.1553 14.8532 22.152 15.7881L15.788 22.1521Z" stroke="white" stroke-width="1.5" stroke-linecap="round" stroke-linejoin="round"/>
<path id="Shape_4" d="M13.666 13.666L18.97 18.97" stroke="white" stroke-width="1.5" stroke-linecap="round" stroke-linejoin="round"/>
</g>
</svg>
