<svg width="32" height="32" viewBox="0 0 32 32" fill="none" xmlns="http://www.w3.org/2000/svg">
<path d="M13.0624 10.2413C13.3058 10.2413 13.5447 10.1421 13.7168 9.97C13.8889 9.79788 13.9881 9.55905 13.9881 9.31565C13.9881 9.07224 13.8889 8.83336 13.7168 8.66118C13.5447 8.48906 13.3058 8.39 13.0624 8.39C12.819 8.39 12.5801 8.48897 12.408 8.66118C12.2358 8.83329 12.1368 9.07224 12.1368 9.31565C12.1368 9.55905 12.2358 9.79784 12.408 9.97C12.5801 10.1421 12.819 10.2413 13.0624 10.2413ZM23.754 17.8319C23.5106 17.8319 23.2718 17.9309 23.0996 18.1031C22.9274 18.2752 22.8284 18.5142 22.8284 18.7576C22.8284 19.001 22.9274 19.2398 23.0996 19.412C23.2717 19.5841 23.5106 19.6833 23.754 19.6833C23.9983 19.6833 24.2363 19.5841 24.4084 19.412C24.5806 19.2399 24.6797 19.0011 24.6797 18.7576C24.6797 18.5142 24.5806 18.2753 24.4084 18.1031C24.2364 17.9308 23.9984 17.8319 23.754 17.8319ZM23.0598 5.93674C23.3043 5.93674 23.5421 5.83754 23.7143 5.66547C23.8875 5.49336 23.9856 5.2545 23.9856 5.01101C23.9856 4.7676 23.8875 4.52881 23.7143 4.35656C23.5422 4.18445 23.3033 4.08545 23.0598 4.08545C22.8164 4.08545 22.5786 4.18442 22.4054 4.35656C22.2332 4.5289 22.1342 4.7676 22.1342 5.01101C22.1342 5.25441 22.2332 5.49329 22.4054 5.66547C22.5776 5.83782 22.8164 5.93674 23.0598 5.93674ZM21.5724 10.2478C21.7532 10.4284 21.99 10.5189 22.2271 10.5189C22.464 10.5189 22.7008 10.4284 22.8816 10.2478L28.9911 4.13832C29.3526 3.77679 29.3526 3.19059 28.9911 2.82915C28.6296 2.46771 28.0435 2.46771 27.6819 2.82915L21.5724 8.93862C21.2109 9.30024 21.2109 9.88636 21.5724 10.2478ZM26.3329 11.8542L18.696 16.4363C18.2576 16.6993 18.1155 17.268 18.3785 17.7064C18.552 17.9957 18.8587 18.156 19.1732 18.156C19.3352 18.156 19.4995 18.1132 19.6485 18.0239L27.2854 13.4417C27.7238 13.1787 27.8659 12.61 27.6029 12.1717C27.3399 11.7333 26.7712 11.5913 26.3329 11.8542ZM14.0766 13.4182C14.2344 13.5234 14.4128 13.5739 14.5893 13.5739C14.8884 13.5739 15.1819 13.4292 15.3603 13.1616L21.4698 3.99727C21.7534 3.57201 21.6384 2.99722 21.2131 2.71363C20.7876 2.43002 20.2129 2.54472 19.9293 2.97034L13.8199 12.1346C13.5363 12.5599 13.6512 13.1346 14.0766 13.4182ZM19.5464 12.0302L19.0975 11.1207L18.6485 12.0302L17.6448 12.176L18.3712 12.884L18.1997 13.8837L19.0975 13.4117L19.9952 13.8837L19.8238 12.884L20.5501 12.176L19.5464 12.0302ZM29.7143 9.41304L28.7107 9.26698L28.2618 8.35763L27.8128 9.26698L26.8091 9.41304L27.5354 10.121L27.364 11.1207L28.2618 10.6487L29.1594 11.1207L28.9881 10.121L29.7143 9.41304ZM13.7671 6.24678L14.6649 5.77482L15.5625 6.24678L15.3912 5.24719L16.1174 4.53914L15.1137 4.39331L14.6649 3.48378L14.2159 4.39331L13.2122 4.53914L13.9385 5.24719L13.7671 6.24678ZM8.61169 22.1909C8.36828 22.1909 8.1294 22.289 7.95723 22.4621C7.78416 22.6336 7.68604 22.8722 7.68604 23.1166C7.68604 23.36 7.78416 23.5988 7.95723 23.7711C8.1294 23.9432 8.36828 24.0422 8.61169 24.0422C8.85509 24.0422 9.09306 23.943 9.26605 23.7711C9.43821 23.5987 9.53733 23.36 9.53733 23.1166C9.53733 22.8722 9.43821 22.6334 9.26605 22.4621C9.09397 22.2889 8.85518 22.1909 8.61169 22.1909ZM10.926 22.0364C10.926 22.2798 11.025 22.5187 11.1972 22.6909C11.3693 22.863 11.6082 22.9621 11.8516 22.9621C12.095 22.9621 12.3339 22.8629 12.506 22.6909C12.6782 22.5179 12.7773 22.2798 12.7773 22.0364C12.7773 21.793 12.6782 21.5541 12.506 21.382C12.3339 21.2089 12.095 21.1108 11.8516 21.1108C11.6082 21.1108 11.3693 21.2088 11.1972 21.382C11.0249 21.5541 10.926 21.7921 10.926 22.0364ZM9.84564 16.636C9.84564 16.8794 9.94467 17.1183 10.1168 17.2903C10.289 17.4636 10.5279 17.5616 10.7713 17.5616C11.0147 17.5616 11.2536 17.4636 11.4256 17.2903C11.5988 17.1182 11.6969 16.8794 11.6969 16.636C11.6969 16.3926 11.5988 16.1538 11.4256 15.9815C11.2536 15.8094 11.0147 15.7103 10.7713 15.7103C10.5279 15.7103 10.289 15.8093 10.1168 15.9815C9.94467 16.1537 9.84564 16.3925 9.84564 16.636ZM15.0915 21.8818C15.3349 21.8818 15.5738 21.7828 15.7459 21.6105C15.9191 21.4384 16.0172 21.1997 16.0172 20.9562C16.0172 20.7128 15.9191 20.4739 15.7459 20.3017C15.5739 20.1294 15.335 20.0305 15.0915 20.0305C14.8481 20.0305 14.6093 20.1295 14.437 20.3017C14.2649 20.4738 14.1659 20.7128 14.1659 20.9562C14.1659 21.1996 14.2649 21.4384 14.437 21.6105C14.6093 21.7829 14.8481 21.8818 15.0915 21.8818ZM9.69203 18.9511C9.44772 18.9511 9.20884 19.0492 9.03667 19.2214C8.8645 19.3935 8.76638 19.6324 8.76638 19.8767C8.76638 20.1201 8.8645 20.3581 9.03667 20.5303C9.20974 20.7033 9.44862 20.8016 9.69203 20.8016C9.93552 20.8016 10.1733 20.7033 10.3466 20.5303C10.5186 20.3582 10.6178 20.1202 10.6178 19.8767C10.6178 19.6324 10.5186 19.3935 10.3466 19.2214C10.1743 19.0493 9.93543 18.9511 9.69203 18.9511ZM12.9319 19.7221C13.1753 19.7221 13.4142 19.6232 13.5864 19.4509C13.7585 19.2779 13.8576 19.0399 13.8576 18.7965C13.8576 18.5522 13.7585 18.3143 13.5864 18.1411C13.4143 17.969 13.1754 17.8709 12.9319 17.8709C12.6876 17.8709 12.4487 17.969 12.2775 18.1411C12.1044 18.3144 12.0063 18.5522 12.0063 18.7965C12.0063 19.0399 12.1044 19.2788 12.2775 19.4509C12.4487 19.6233 12.6876 19.7221 12.9319 19.7221ZM10.8861 11.1213C10.6679 10.9033 10.3559 10.8083 10.0528 10.8675C9.75014 10.9271 9.49705 11.1334 9.37784 11.4178L2.35783 28.1584C2.21246 28.5051 2.29112 28.9052 2.55688 29.1709C2.73403 29.3481 2.97073 29.442 3.2116 29.442C3.33218 29.442 3.45374 29.4185 3.56933 29.37L20.3097 22.3498C20.5942 22.2305 20.8005 21.9775 20.86 21.6748C20.9194 21.3721 20.8244 21.0597 20.6062 20.8416L10.8861 11.1213ZM4.94024 26.7875L10.552 13.4054L18.3223 21.1757L4.94024 26.7875Z" fill="white"/>
</svg>
