<svg width="25" height="25" viewBox="0 0 25 25" fill="none" xmlns="http://www.w3.org/2000/svg">
<g id="travel-svgrepo-com (1) 1" clip-path="url(#clip0_63_2382)">
<g id="Group">
<g id="Group_2">
<path id="Vector" d="M24.1634 3.70303L24.1783 3.68868C25.0446 2.82171 25.0725 1.43969 24.2405 0.607481C23.8488 0.215786 23.3218 0 22.7572 0C22.1589 0 21.5912 0.237868 21.1591 0.66972L19.2575 2.7018L12.4559 0.665621L11.0461 2.07578C10.8685 2.25299 10.7707 2.48918 10.7707 2.74019C10.7707 2.99138 10.8685 3.2272 11.0461 3.40441L11.108 3.46628L16.0208 6.16994L15.302 6.94998C14.3492 6.33299 13.2876 5.87869 12.1481 5.6193C11.4284 5.45522 10.6924 5.3722 9.9605 5.3722C9.59126 5.3722 9.22686 5.39438 8.86722 5.43407L8.83312 5.39624C8.81709 5.41059 8.79901 5.4268 8.7814 5.44329C4.69833 5.9276 1.33762 8.90119 0.402355 13.007C-0.180157 15.5624 0.267628 18.1917 1.66279 20.4103C3.05794 22.6286 5.23397 24.1709 7.78959 24.7529C8.50925 24.917 9.2454 25 9.97717 25C14.5813 25 18.5119 21.8611 19.5356 17.3667C19.7184 16.5649 19.7996 15.7557 19.7818 14.9545C19.8378 14.7491 19.8281 14.5252 19.7412 14.2814C19.6024 12.7642 19.1099 11.29 18.2752 9.96316C18.1737 9.80197 18.0669 9.64498 17.957 9.49162L18.6867 8.81901L21.4124 13.7712L21.4748 13.8334C21.6523 14.0103 21.888 14.1078 22.1384 14.1078C22.3887 14.1078 22.6239 14.0105 22.8017 13.8332L24.2124 12.4229L22.1627 5.57495L24.1634 3.70303ZM5.06431 22.2297C4.13147 21.5805 3.32926 20.745 2.70585 19.7538C1.59701 17.9906 1.17512 15.9307 1.48958 13.8918C2.03901 14.0399 2.59376 14.2587 2.80675 14.4108C2.79874 14.4675 2.78989 14.525 2.78104 14.5823C2.69867 15.117 2.57419 15.9245 3.23245 16.4037C3.80854 16.8227 4.3358 16.4308 4.57627 16.2282C4.6728 16.306 4.77799 16.3835 4.88616 16.4634C5.05499 16.5879 5.35277 16.8077 5.45982 16.9414C5.42591 17.0595 5.37606 17.1991 5.32733 17.3351C5.13614 17.8691 4.93834 18.4209 5.30637 18.8087C5.43327 18.9648 5.81266 19.6822 5.90956 19.9406C5.90751 20.0267 5.91385 20.1246 5.92205 20.2521C5.93071 20.3836 5.94981 20.68 5.93025 20.8006C5.92978 20.8005 5.18264 21.7415 5.22578 21.9644L5.06431 22.2297ZM18.334 17.0924C17.4388 21.0227 14.0025 23.7674 9.97717 23.7674C9.33718 23.7674 8.69336 23.6948 8.06323 23.5512C7.29158 23.3755 6.56084 23.0972 5.88264 22.7314C6.48397 22.2229 7.00443 21.4061 7.01226 21.3929C7.19459 21.0848 7.18416 20.6757 7.15173 20.1728C7.14642 20.0885 7.14027 20.0162 7.14148 19.9698C7.14065 19.9988 7.13534 20.0218 7.13142 20.0382C7.23018 19.601 6.63584 18.5943 6.3499 18.1656C6.37943 18.0522 6.44232 17.8768 6.48732 17.7507C6.56186 17.5424 6.63892 17.3272 6.68513 17.123C6.85498 16.3842 6.16877 15.8781 5.61756 15.4717C5.4602 15.3557 5.29761 15.2357 5.2255 15.1593C4.97738 14.8976 4.55941 14.6957 3.94969 15.1496C3.96059 15.0191 3.98342 14.8715 3.99898 14.7696C4.01948 14.6369 4.03942 14.5045 4.05218 14.3769C4.12308 13.662 3.35125 13.0945 1.76211 12.6884C2.63373 9.80384 4.90638 7.64588 7.73266 6.89417C7.6066 7.20201 7.50691 7.55793 7.46116 7.97226C7.4347 8.21153 7.40041 8.42824 7.37013 8.61906C7.24956 9.38084 7.11279 10.2443 8.20691 10.7315C8.8033 10.9978 9.21941 11.0416 9.55399 11.0769C9.70166 11.0923 9.8253 11.1054 9.95369 11.1346C9.99087 11.3198 9.9672 11.7004 9.95761 11.8568C9.9441 12.0751 9.92947 12.3104 9.99926 12.5079C10.0894 13.0062 10.5248 14.8268 12.2181 16.0013C11.9798 16.1434 11.6666 16.2888 11.4037 16.3393C11.2612 16.3666 11.1152 16.3849 10.9738 16.4026C10.3957 16.475 9.60393 16.5738 9.27261 17.487C9.1253 17.8906 9.2209 18.1845 9.32702 18.3599C9.5907 18.796 10.1038 18.8647 10.4784 18.9148C10.5388 18.9229 10.6236 18.9343 10.6746 18.9444C10.9065 19.1142 11.6302 19.5953 12.3805 19.5953C12.7195 19.5953 13.064 19.4969 13.3711 19.2274C13.4945 19.1227 14.0798 19.1295 14.3617 19.1331C14.9581 19.1401 15.5213 19.1471 15.8806 18.7838C16.0571 18.605 16.1472 18.3717 16.1411 18.1083C16.1283 17.5936 17.1136 17.04 17.9053 16.5951C18.0963 16.4879 18.2916 16.3777 18.4814 16.2633C18.4459 16.5401 18.3969 16.8168 18.334 17.0924ZM18.5367 14.701C18.358 14.9273 17.7072 15.2933 17.3015 15.5211C16.2415 16.1167 15.0495 16.7864 14.92 17.8937C14.7648 17.9062 14.5411 17.9031 14.3766 17.9013C13.7454 17.8943 13.0319 17.8851 12.5575 18.3022C12.3523 18.4823 11.728 18.2051 11.3714 17.9272C11.1717 17.7713 10.9331 17.7333 10.6799 17.699C10.7771 17.6744 10.9175 17.652 11.1268 17.6261C11.28 17.6068 11.4538 17.5852 11.6357 17.5503C12.1882 17.4444 13.6279 16.8399 13.7479 16.0411C13.7979 15.7088 13.6374 15.401 13.3283 15.2371C11.4942 14.2681 11.2128 12.3093 11.2019 12.229L11.1804 12.0559C11.1826 12.0153 11.1853 11.9713 11.1876 11.9335C11.2241 11.3456 11.2919 10.2513 10.4285 9.98701C10.1422 9.8999 9.89844 9.87427 9.68312 9.85163C9.38469 9.82042 9.12717 9.79331 8.70901 9.60659C8.55993 9.54025 8.52891 9.49646 8.52891 9.49646C8.49136 9.41941 8.54698 9.06862 8.58761 8.81249C8.62003 8.60788 8.65665 8.37626 8.68637 8.10801C8.76622 7.38714 9.05663 6.93442 9.33373 6.62844C9.54113 6.61363 9.74983 6.6044 9.96078 6.6044C10.6006 6.6044 11.2444 6.67708 11.8745 6.82066C12.8 7.0316 13.6669 7.38938 14.4535 7.8708L14.3919 7.93751C14.2839 8.04661 14.1853 8.16224 14.0968 8.28336L11.8934 7.71296L10.9273 8.67934C10.7648 8.84137 10.6753 9.05706 10.6753 9.28664C10.6753 9.51649 10.7647 9.73256 10.9272 9.89496L10.9964 9.96437L13.5343 11.2524L13.6255 11.3436L14.9135 13.882L14.9829 13.9512C15.1451 14.1137 15.3612 14.2032 15.5909 14.2032C15.8207 14.2032 16.0368 14.1137 16.1984 13.9517L17.1651 12.9853L16.5831 10.7368C16.6975 10.6524 16.8063 10.5587 16.9096 10.4566L17.0415 10.3352C17.106 10.4286 17.1709 10.5217 17.2319 10.6187C18.0177 11.8681 18.4574 13.2668 18.5367 14.701ZM22.8207 12.071L22.216 12.6757L19.0079 6.84618L16.0661 9.55833L16.0487 9.57501C15.9133 9.70992 15.7624 9.81902 15.6002 9.89887L15.1508 10.1207L15.7959 12.6119L15.6998 12.708L14.6357 10.6113L14.2672 10.2424L12.1706 9.17875L12.2665 9.08287L14.7217 9.71849L14.941 9.26176C15.0215 9.0948 15.1328 8.93929 15.272 8.79981L17.9926 5.84887L12.2026 2.6623L12.8073 2.05742L19.6357 4.10143L22.0366 1.53519C22.2354 1.33991 22.4907 1.23248 22.7571 1.23248C22.9925 1.23248 23.2097 1.31997 23.369 1.47892C23.7187 1.82869 23.693 2.42452 23.3131 2.811L20.7631 5.19611L22.8207 12.071Z" fill="white"/>
</g>
</g>
</g>
<defs>
<clipPath id="clip0_63_2382">
<rect width="25" height="25" fill="white"/>
</clipPath>
</defs>
</svg>
