<svg width="23" height="25" viewBox="0 0 23 25" fill="none" xmlns="http://www.w3.org/2000/svg">
<path d="M10.5159 24.5546C8.3694 24.4873 6.3811 24.016 4.55096 22.9387C2.78861 21.8839 1.41036 20.4701 0.619556 18.5624C-0.351999 16.2059 -0.148648 13.8943 1.00366 11.6725C1.81706 10.1015 2.99196 8.84473 4.48318 7.92457C8.27903 5.56809 12.2782 5.18656 16.413 6.86977C18.085 7.54305 19.4632 8.64274 20.5251 10.1015C22.4909 12.7946 22.6264 16.2957 20.7963 19.2581C19.644 21.1209 18.0172 22.445 16.0515 23.3652C14.3343 24.1731 12.459 24.5546 10.5159 24.5546Z" fill="#EF0000"/>
<path d="M10.3577 24.5772C7.87234 24.465 5.54513 23.7917 3.57942 22.2656C2.22376 21.2108 1.00367 19.954 0.461404 18.2484C-0.216425 16.0714 -0.126046 13.9618 0.935886 11.9195C1.54593 10.7525 2.22376 9.69768 3.24051 8.84486C4.23466 8.01448 5.34178 7.34119 6.53928 6.84745C6.74263 6.75768 6.92338 6.89234 6.94597 7.11677C7.01376 7.76761 6.99117 8.41844 7.10414 9.09173C7.6464 11.942 8.77611 14.5453 10.5385 16.812C12.233 19.0114 14.3795 20.6946 17.136 21.4801C17.2038 21.5025 17.2942 21.525 17.362 21.5699C17.6557 21.727 18.1979 21.4352 18.2431 21.929C18.2657 22.3105 17.7687 22.4003 17.4749 22.5798C15.9385 23.5448 14.2891 24.2181 12.459 24.3977C11.7586 24.465 11.0581 24.6221 10.3577 24.5772Z" fill="#FFCDDA"/>
<path d="M8.86646 5.41102C8.45976 3.99713 8.91165 2.83011 9.56688 1.75286C10.2899 0.563392 11.3744 -0.042561 12.8205 0.00232443C13.1142 0.00232443 13.3627 0.114538 13.6113 0.226752C14.1761 0.473621 14.4698 0.87759 14.3795 1.50599C14.3569 1.6182 14.3795 1.73041 14.3569 1.86507C14.3117 2.33637 14.2439 2.38125 13.7468 2.26904C12.346 1.95484 11.51 2.26904 10.6966 3.39117C10.3351 3.90736 10.0414 4.44598 9.86061 5.05193C9.83801 5.14171 9.86061 5.27636 9.8832 5.4559C10.4481 5.34369 10.9903 5.36613 11.5326 5.36613C12.0974 5.36613 12.6397 5.50079 13.1368 5.72522C13.4757 5.88232 14.0406 5.94964 13.9502 6.3985C13.8824 6.73514 13.3401 6.5556 13.0012 6.66781C12.5267 6.82491 11.9845 6.73514 11.6004 7.13911C11.623 7.38598 11.8263 7.43086 11.9845 7.52063C12.4364 7.74506 12.8657 8.03682 13.182 8.46323C13.2498 8.553 13.2949 8.66521 13.2272 8.77743C13.1594 8.88964 13.0464 8.91208 12.9334 8.91208C12.3008 8.88964 11.6682 8.88964 11.0581 8.82231C10.4707 8.77743 9.99617 8.95697 9.54429 9.31605C9.00202 9.74246 8.61792 10.2811 8.27901 10.8422C8.16603 11.0441 8.05307 11.2461 7.89491 11.4481C7.82712 11.5379 7.71415 11.5828 7.60118 11.6052C7.44302 11.6277 7.39783 11.493 7.37523 11.3808C7.21707 10.7748 7.1267 10.1689 7.28486 9.51803C7.33005 9.29361 7.35264 9.06918 7.37523 8.82231C7.37523 8.68766 7.21707 8.62033 7.12669 8.66521C6.72 8.88964 6.3133 9.13651 5.9066 9.38338C5.70325 9.49559 5.5225 9.65269 5.31915 9.7649C5.18358 9.83223 5.04802 9.94445 4.91245 9.78735C4.79948 9.65269 4.82208 9.49559 4.88986 9.33849C5.09321 8.77743 5.40953 8.28369 5.83882 7.85727C6.06477 7.63285 6.29071 7.43086 6.51665 7.20644C6.58444 7.13911 6.65222 7.00445 6.65222 6.91468C6.65222 6.78002 6.51665 6.73514 6.40368 6.73514C6.08736 6.7127 5.77104 6.69025 5.45472 6.66781C5.34175 6.66781 5.18359 6.64537 5.22877 6.48827C5.25137 6.37605 5.29656 6.26384 5.38694 6.19651C6.24552 5.59056 7.21707 5.32125 8.27901 5.36613C8.39198 5.34369 8.55014 5.36613 8.86646 5.41102Z" fill="#A3E154"/>
<path d="M11.4196 1.5957C11.7133 1.61814 12.1426 1.52837 12.5719 1.68547C12.6397 1.70791 12.7075 1.77524 12.7301 1.84257C12.7753 1.97722 12.7075 2.04455 12.5719 2.067C11.2615 2.38119 10.5836 3.34623 10.0414 4.46837C9.95099 4.64791 9.88321 4.82745 9.81543 5.00699C9.72505 5.20898 9.58949 5.32119 9.36354 5.29875C9.16019 5.29875 9.00203 5.20898 8.88906 5.02943C8.70831 4.76012 8.61793 4.44592 8.68571 4.15417C8.84387 3.39112 9.02463 2.65051 9.45392 1.97722C9.61208 1.73035 9.83802 1.5957 10.1317 1.5957C10.4933 1.5957 10.9 1.5957 11.4196 1.5957Z" fill="#FFCED9"/>
<path d="M7.39783 11.0218C7.5108 9.51815 9.02462 7.74517 10.8322 7.92472C11.0129 7.94716 11.2163 7.9696 11.397 8.05937C11.6004 8.17159 11.8263 8.35113 11.8037 8.598C11.7811 8.9122 11.4648 8.84487 11.2389 8.86731C11.1259 8.86731 11.0129 8.86731 10.8773 8.86731C9.99617 8.79998 9.36353 9.22639 8.88905 9.89968C8.57273 10.3485 8.32419 10.8198 8.03047 11.2911C7.91749 11.4482 7.78193 11.6278 7.55599 11.5156C7.39783 11.4258 7.39783 11.2462 7.39783 11.0218Z" fill="#FFCEDB"/>
</svg>
