<svg width="30" height="19" viewBox="0 0 30 19" fill="none" xmlns="http://www.w3.org/2000/svg">
<path d="M7.98761 18.0472C7.15162 18.0472 6.33823 18.0248 5.50224 18.0248C4.34993 18.0023 3.2654 17.6657 2.20347 17.2168C0.373328 16.4538 -0.236717 15.1297 0.0796035 13.2445C0.576678 10.484 1.72899 7.97043 3.51394 5.77105C5.41186 3.45945 7.78427 1.9109 10.6086 0.945864C10.6537 0.923421 10.6763 0.92342 10.7215 0.92342C13.0261 -0.0865021 15.4663 -0.108946 17.9065 0.115481C18.9459 0.205252 19.9852 0.42968 21.0019 0.811206C23.1258 1.5967 25.1141 2.56174 26.8539 3.99807C27.5769 4.60403 28.2321 5.27731 28.7292 6.08524C29.8589 7.94799 30.13 10.7309 28.0288 12.8854C26.6279 14.3217 24.9559 15.2868 23.0354 15.8703C20.8212 16.5435 18.5618 17.0148 16.2797 17.4188C13.5684 17.8901 10.7893 18.0697 7.98761 18.0472Z" fill="#CE9968"/>
<path d="M4.03357 5.41187C5.02772 6.15247 6.04447 6.87064 7.01603 7.65614C8.05536 8.50896 9.20767 9.1598 10.3374 9.87796C12.5064 11.247 14.8562 12.2345 17.2512 13.0648C19.7818 13.9625 22.4027 14.3665 25.1141 14.2319C25.3852 14.2094 25.6563 14.1645 25.9275 14.0748C26.063 14.0299 26.2438 13.9625 26.3116 14.1645C26.3793 14.3441 26.1986 14.4563 26.0856 14.5236C24.8881 15.2193 23.6228 15.7131 22.2898 16.0722C20.4822 16.5659 18.6521 16.9923 16.7994 17.2841C15.3081 17.5309 13.8169 17.9125 12.2805 17.8227C12.1223 17.8227 11.9642 17.8002 11.806 17.8227C9.5014 18.2491 7.17419 17.9798 4.86957 17.9125C3.58169 17.89 2.339 17.3289 1.25448 16.5883C0.418486 16.0273 0.169946 15.1071 0.0795689 14.1421C0.0117859 13.4912 0.215132 12.8853 0.373292 12.3018C0.667018 11.2021 0.960748 10.1024 1.45782 9.09247C1.9549 8.03766 2.67791 7.09507 3.31055 6.10759C3.42352 5.86072 3.67206 5.61385 4.03357 5.41187Z" fill="#F2C2C4"/>
<path d="M24.5719 8.64384C24.5493 8.80094 24.4815 8.93559 24.3233 9.00292C24.1652 9.07025 24.0296 9.00292 23.9166 8.89071C23.894 8.86827 23.8715 8.82338 23.8489 8.80094C23.6907 8.59895 23.6229 8.39697 23.7585 8.17255C23.8489 8.03789 23.9844 7.97056 24.1652 8.03789C24.4363 8.12766 24.5945 8.35208 24.5719 8.64384Z" fill="#DA966C"/>
<path d="M27.1928 10.9106C27.125 10.8657 27.0347 10.8432 27.0121 10.7983C26.8991 10.4841 26.9669 10.2148 27.2154 9.96796C27.3284 9.85575 27.4413 9.92307 27.5091 10.0128C27.7577 10.3046 27.5543 10.8432 27.1928 10.9106Z" fill="#DB986E"/>
<path d="M25.8371 8.59873C25.6112 8.59873 25.5208 8.44163 25.453 8.26208C25.3852 8.08254 25.4078 7.88056 25.5886 7.76834C25.6563 7.72346 25.8371 7.72346 25.9049 7.79079C26.1082 7.99277 26.1308 8.23964 26.0179 8.50896C25.9727 8.5314 25.8823 8.55384 25.8371 8.59873Z" fill="#DE9B72"/>
<path d="M24.3459 11.2471C24.5944 11.2471 24.8203 11.4042 24.8429 11.6286C24.8655 11.8081 24.73 11.8979 24.5492 11.8979C24.2781 11.8979 24.0521 11.7408 24.0295 11.5388C24.0295 11.4266 24.2103 11.2471 24.3459 11.2471Z" fill="#DB8F63"/>
<path d="M24.6397 4.02043C24.4589 3.9531 24.2781 3.90821 24.0748 3.88577C23.2388 3.77355 22.3802 3.68378 21.5442 3.59401C21.4765 3.30225 21.6572 3.19004 21.7928 3.05539C22.0187 2.83096 22.2447 2.62897 22.4706 2.40455C22.561 2.31478 22.561 2.18012 22.4706 2.1128C22.3802 2.04547 22.2447 2.02302 22.1543 2.04546C22.0187 2.09035 21.8606 2.18012 21.7476 2.26989C21.4087 2.5392 21.1149 2.8534 20.889 3.21249C20.7308 3.45936 20.5275 3.59401 20.2112 3.59401C18.9911 3.54912 17.771 3.54912 16.5509 3.50424C16.4153 3.50424 16.3249 3.43691 16.3024 3.3247C16.3024 3.25737 16.325 3.1676 16.3927 3.12272C17.0254 2.40455 17.7484 1.82104 18.5166 1.28241C18.7425 1.12531 19.0137 1.0131 19.1492 0.766233C19.1718 0.721347 19.1718 0.609128 19.1266 0.564243C19.0815 0.519357 18.9911 0.429586 18.9459 0.452029C18.7199 0.5418 18.5166 0.631575 18.3133 0.743788C17.2739 1.41707 16.4153 2.24745 15.5793 3.14515C15.3082 3.41447 15.0371 3.54913 14.653 3.54913C13.5007 3.52668 12.3935 3.72867 11.2638 3.95309C10.699 4.06531 10.1115 4.17752 9.34331 4.33462C9.84038 3.25737 10.3826 2.44943 11.0605 1.73127C11.2864 1.50684 11.5124 1.28241 11.7157 1.05799C11.8287 0.945772 11.8965 0.788675 11.7383 0.654019C11.5801 0.541805 11.4446 0.631574 11.309 0.721344C11.1734 0.811115 11.0831 0.923327 10.9701 1.03554C10.1115 1.84348 9.3885 2.78608 8.93661 3.88577C8.71067 4.44684 8.32656 4.76103 7.76171 4.91813C7.42279 5.00791 7.10647 5.165 6.76756 5.29966C6.63199 5.36698 6.49642 5.45676 6.38345 5.54653C6.33826 5.59141 6.31567 5.68118 6.33827 5.74851C6.36086 5.88317 6.45123 5.97294 6.5868 5.92806C6.92571 5.81584 7.24204 5.68119 7.58095 5.59142C7.73911 5.54653 7.91986 5.38943 8.191 5.61385C8.05543 6.28713 7.76171 6.98286 7.58095 7.67859C7.53577 7.88057 7.30982 7.9479 7.12907 8.01523C6.6094 8.19477 6.08972 8.35186 5.57006 8.53141C5.34411 8.59873 5.14076 8.68851 4.91482 8.77828C4.75666 8.8456 4.64369 8.98026 4.71147 9.13736C4.73407 9.20469 4.91482 9.24957 5.02779 9.24957C5.14076 9.24957 5.25374 9.20469 5.36671 9.18225C5.81859 9.02515 6.24788 8.86805 6.69977 8.7334C7.26463 8.55385 7.30982 8.62118 7.26463 9.15981C7.21944 9.54133 7.21944 9.9453 7.21944 10.3268C7.21944 10.4839 7.33241 10.641 7.49057 10.641C7.67133 10.6635 7.76171 10.5288 7.7843 10.3493C7.8069 9.96774 7.85208 9.56378 7.85208 9.18225C7.85208 8.59874 8.12322 8.23965 8.71067 8.12744C9.97595 7.85813 11.2412 7.56637 12.5065 7.27462C12.6195 7.25218 12.755 7.25218 12.8454 7.27462C12.9584 7.29706 13.0714 7.36438 13.0488 7.52148C13.0262 7.67858 12.981 7.81324 12.9358 7.97034C12.8454 8.46408 12.7551 8.95782 12.6647 9.474C12.6421 9.6311 12.7325 9.7882 12.9358 9.7882C13.1166 9.81064 13.2069 9.67599 13.2521 9.49645C13.2973 9.15981 13.2973 8.77828 13.3877 8.46408C13.5007 8.01523 13.5684 7.49904 13.9074 7.18484C14.2011 6.89309 14.6756 7.07263 15.0371 6.96042C15.1049 6.93797 15.1952 6.91553 15.263 6.91553C16.4831 6.82576 17.6806 6.60134 18.9007 6.60134C19.217 6.60134 19.443 6.69111 19.4656 7.02775C19.4881 7.13996 19.5333 7.25218 19.6689 7.27462C19.8271 7.29706 19.9174 7.20729 19.9174 7.09507C20.0078 6.55645 20.3467 6.42179 20.8438 6.42179C21.6346 6.44423 22.4254 6.42179 23.1936 6.39935C23.4422 6.39935 23.6229 6.21981 23.5551 6.06271C23.4873 5.88317 23.3518 5.83829 23.1936 5.81584C22.9903 5.81584 22.8095 5.86072 22.6062 5.86072C21.8606 5.86072 21.1149 5.83828 20.3693 5.83828C20.3241 5.54652 20.4597 5.29965 20.5727 5.05278C20.9116 4.2224 20.9116 4.22241 21.7702 4.24485C22.5158 4.2673 23.2614 4.33462 24.007 4.35707C24.2104 4.35707 24.3911 4.35706 24.5945 4.33462C24.6397 4.33462 24.7074 4.22241 24.7074 4.17752C24.73 4.15508 24.6848 4.04287 24.6397 4.02043ZM13.4329 6.51156C12.7099 6.8482 11.9191 6.82576 11.1509 7.02775C10.3601 7.22973 9.56925 7.40928 8.75585 7.61126C8.59769 7.65615 8.46213 7.72347 8.28137 7.56637C8.30397 6.8482 8.64288 6.19736 8.86883 5.50164C8.9818 5.165 9.25293 5.03034 9.56925 4.94057C10.7667 4.60393 11.9868 4.31218 13.2521 4.24485C13.6814 4.22241 14.1107 4.17752 14.6078 4.15508C14.5852 4.33462 14.5852 4.42439 14.54 4.46928C14.1785 5.165 13.817 5.83828 13.4329 6.51156ZM20.166 4.55905C20.0756 4.82836 19.9626 5.07523 19.8949 5.3221C19.7593 5.7934 19.4882 5.99538 18.9685 6.04027C17.4773 6.15248 16.0086 6.33202 14.54 6.46668C14.4722 6.46668 14.4044 6.39935 14.2915 6.35447C14.4948 5.61386 14.9467 4.96302 15.3986 4.35707C15.5116 4.19997 15.6923 4.1102 15.8957 4.1102C17.2287 4.13264 18.5618 4.15508 19.8949 4.17752C20.0982 4.15508 20.2338 4.35706 20.166 4.55905Z" fill="#FFB273"/>
</svg>
