<svg width="22" height="24" viewBox="0 0 22 24" fill="none" xmlns="http://www.w3.org/2000/svg">
<path d="M0.00637292 12.3358C-0.0840043 9.82221 0.797174 7.62282 1.99467 5.55809C2.64991 4.41351 3.64406 3.5158 4.70599 2.66298C6.58132 1.15932 8.79556 0.57581 11.0324 0.0371852C11.2132 -0.00770026 11.4165 -0.00770163 11.6198 0.0147411C12.8851 0.0596265 14.1052 0.261612 15.2801 0.755351C15.958 1.04711 16.6584 1.31642 17.2458 1.76527C17.5848 2.03459 17.9011 2.32634 18.1044 2.70787C18.4433 3.35871 18.8048 4.03199 18.9404 4.75015C19.1438 5.69275 19.573 6.47824 20.1153 7.26374C20.5672 7.89213 20.8609 8.63274 21.1998 9.32847C21.2676 9.46312 21.2676 9.62022 21.2902 9.77732C21.4032 11.3259 21.1547 12.7846 20.409 14.1761C19.8668 15.2085 19.2793 16.2408 18.8726 17.3405C18.7597 17.6323 18.6467 17.924 18.5789 18.2158C18.3078 19.2033 17.7881 20.0785 17.2232 20.9089C17.0199 21.2231 16.7036 21.4924 16.3872 21.7168C15.1898 22.5697 13.8567 23.1083 12.4106 23.3776C12.3655 23.3776 12.3429 23.4 12.2977 23.4C11.168 23.2878 10.0157 23.2654 9.0215 22.6819C8.07254 22.1208 7.23656 21.4251 6.49094 20.6172C6.21981 20.3254 6.03906 19.9663 5.8583 19.6297C5.49679 18.9788 4.97712 18.5524 4.23151 18.3953C3.25996 18.2158 2.40137 17.7445 1.58797 17.1834C1.36203 17.0263 1.13609 16.8692 1.00052 16.6223C0.480856 15.5675 -0.0162214 14.5127 0.00637292 13.3008C0.00637292 13.0091 0.00637292 12.65 0.00637292 12.3358Z" fill="white"/>
<path d="M12.4106 21.8515C13.0432 21.8515 13.5403 21.6047 14.06 21.4251C14.9638 21.1334 15.8223 20.7743 16.5228 20.0786C16.8617 19.7419 17.3136 19.5848 17.7655 19.4053C17.8106 19.3828 17.9236 19.4053 17.9688 19.4502C18.014 19.495 18.0592 19.6073 18.0366 19.6521C17.5847 20.2356 17.3814 20.9763 16.7713 21.47C15.9353 22.1433 15.009 22.6595 14.0148 23.0185C13.4951 23.1981 12.9529 23.3103 12.4332 23.445C12.2524 23.4898 12.0491 23.4898 11.8457 23.4674C10.2415 23.3103 8.77292 22.8166 7.57542 21.7393C6.92019 21.1334 6.24236 20.5274 5.85826 19.697C5.54194 19.0237 4.97708 18.6198 4.23147 18.4851C3.3051 18.3056 2.46911 17.8792 1.67831 17.3181C1.3168 17.0488 1.02308 16.7795 0.842321 16.3755C0.345246 15.2983 0.0741134 14.1986 0.0289248 13.0091C-0.0614524 11.1015 0.367841 9.30605 1.06826 7.53307C1.83647 5.58056 3.10175 4.03201 4.68335 2.70789C4.77373 2.64056 4.9093 2.61812 4.99967 2.70789C5.09005 2.79766 5.06746 2.90988 5.02227 3.02209C4.8867 3.35873 4.66076 3.6056 4.41222 3.87491C3.50845 4.79506 2.96619 5.87231 2.69505 7.12911C2.46911 8.31857 2.22057 9.48559 2.19798 10.6975C2.17539 11.6176 2.53689 12.2909 3.23732 12.7847C4.14109 13.4355 4.9093 14.1986 5.47415 15.1412C5.72269 15.5451 5.92604 15.9715 6.10679 16.3979C6.35533 17.0039 6.62646 17.6323 6.78462 18.2607C7.01056 19.2482 7.71099 19.899 8.4566 20.4601C9.58632 21.3353 11.0098 21.672 12.4106 21.8515Z" fill="#F4F3FF"/>
<path d="M7.59805 8.47561C7.50767 6.97195 8.52441 4.95211 10.8968 4.57058C12.4106 4.32371 13.6985 4.95211 14.5797 6.18646C15.619 7.64523 15.732 9.21622 14.8282 10.8097C13.8793 12.5153 11.1679 13.5926 9.04408 11.7074C8.09512 10.877 7.57545 9.82218 7.59805 8.47561Z" fill="#FFD85A"/>
<path d="M7.66586 7.77983C8.11775 8.07159 8.41147 8.25113 8.7052 8.45311C9.13449 8.74487 9.58638 8.96929 10.0609 9.14884C11.4165 9.64258 12.6818 9.46304 13.8115 8.56533C14.1504 8.29602 14.5119 8.04914 14.8509 7.80227C15.0768 7.64517 15.3253 7.75739 15.3705 8.0267C15.7998 10.4954 13.8115 12.9417 11.2809 12.6723C10.445 12.5826 9.69935 12.3133 9.06671 11.6849C8.43407 11.0789 7.8918 10.4281 7.68846 9.55281C7.57548 9.01418 7.62067 8.498 7.66586 7.77983Z" fill="#FFCDDA"/>
</svg>
