<svg width="22" height="32" viewBox="0 0 22 32" fill="none" xmlns="http://www.w3.org/2000/svg">
<path d="M12.3848 0.00618992C12.7689 -0.0386955 13.04 0.163289 13.1756 0.522372C13.3112 0.83657 13.4242 1.17321 13.5597 1.50985C13.876 2.34023 14.3279 3.0584 15.0961 3.5297C15.4576 3.75412 15.7514 4.09076 16.0677 4.38252C16.4066 4.69672 16.7229 5.03336 17.1296 5.30267C17.7397 5.70664 18.056 6.29015 18.1916 7.03076C18.5757 8.98327 19.0501 10.8909 19.4794 12.8434C20.0217 15.2223 20.5414 17.6237 21.061 20.0251C21.287 21.0799 21.4677 22.1796 21.7614 23.212C21.9422 23.8179 21.7615 24.1545 21.3548 24.5361C20.7221 25.1196 20.0895 25.7255 19.502 26.3315C18.8468 27.0048 18.0786 27.5658 17.5589 28.3738C17.4459 28.5533 17.2652 28.6206 17.0618 28.6655C12.9949 29.4735 8.99566 30.5507 4.92869 31.4484C4.18308 31.6055 3.84416 31.3811 3.686 30.6405C2.96298 26.7803 2.21738 22.9426 1.49436 19.0825C0.997282 16.4791 0.567985 13.8758 0.0483159 11.2949C-0.019467 10.9358 -0.0194656 10.644 0.0709116 10.285C0.364638 9.11793 0.703555 7.95091 1.13285 6.82877C1.40398 6.06572 1.49436 5.32511 1.26841 4.53962C1.15544 4.15809 1.11025 3.77657 1.06506 3.39504C0.997277 3.01351 1.13284 2.81153 1.53954 2.7442C3.00817 2.51977 4.40902 2.00359 5.85506 1.64451C7.75298 1.15077 9.60571 0.544815 11.5262 0.163289C11.8426 0.0735178 12.0911 -0.0162528 12.3848 0.00618992Z" fill="#E3F8FF"/>
<path d="M13.763 8.30999C12.9044 8.44465 12.0684 8.55686 11.2325 8.71396C9.35713 9.0506 7.4818 9.40969 5.58388 9.74633C4.54454 9.94831 3.5052 10.1279 2.46587 10.3298C1.85582 10.442 1.24577 10.5318 0.613129 10.6216C0.522752 10.644 0.342 10.5767 0.319406 10.4869C0.251623 10.3074 0.387189 10.2176 0.545349 10.1727C1.20058 10.0156 1.83323 9.81365 2.48846 9.74633C3.97969 9.61167 5.40313 9.2077 6.87176 9.00572C8.40817 8.78129 9.94458 8.46709 11.481 8.19778C12.1362 8.08557 12.7689 7.92847 13.4241 7.79381C13.7404 7.72648 13.8986 7.5245 13.8986 7.2103C13.9212 5.99839 13.9438 4.78649 13.9438 3.57458C13.9438 3.23794 13.763 3.08084 13.4241 3.08084C13.2659 3.08084 13.1078 3.08084 12.9496 3.12573C11.1647 3.50725 9.35713 3.91122 7.57218 4.29275C5.67426 4.69672 3.75374 5.07824 1.83323 5.45977C1.74285 5.48221 1.60728 5.39244 1.56209 5.30267C1.49431 5.19046 1.60728 5.07824 1.69766 5.03336C1.83323 4.96603 1.96879 4.87626 2.12695 4.85381C4.45416 4.38252 6.80397 3.93366 9.13119 3.46237C10.5094 3.19305 11.8877 2.9013 13.2434 2.54222C13.6275 2.45244 13.876 2.45244 14.1923 2.72176C14.7798 3.19305 15.322 3.66435 15.8643 4.20298C16.2258 4.56206 16.6551 4.83137 17.0392 5.16801C17.943 5.99839 18.1237 6.24526 18.3271 7.56938C18.5078 8.75885 18.8467 9.92587 19.0953 11.0929C19.7053 13.8982 20.4057 16.6811 20.9932 19.5089C21.2417 20.7657 21.5581 22 21.8518 23.2568C21.9648 23.7057 21.9196 23.9974 21.5807 24.3116C20.7221 25.1196 19.8861 25.95 19.0501 26.7579C18.5756 27.2292 18.1237 27.7005 17.6492 28.1942C17.3103 28.5309 17.0618 28.486 16.9262 27.9923C16.7455 27.3639 16.6325 26.713 16.5195 26.0622C16.4066 25.4562 16.3388 24.8278 16.2484 24.2219C15.9773 22.4938 15.7061 20.7881 15.3898 19.0601C15.1639 17.7584 14.9379 16.4567 14.6442 15.1775C14.3731 13.9656 14.3053 12.7088 14.0567 11.4969C13.8534 10.5767 13.8534 9.63411 13.8534 8.71396C13.876 8.57931 13.8082 8.46709 13.763 8.30999Z" fill="#DCF5FF"/>
<path d="M5.22242 20.1372C5.33539 19.6659 5.42577 19.262 5.53874 18.858C5.58393 18.7233 5.71949 18.5887 5.85506 18.5438C6.05841 18.454 6.21657 18.6111 6.35214 18.7682C6.39732 18.8355 6.44251 18.9029 6.46511 18.9702C6.75883 19.9801 7.05256 20.9901 7.34628 22C7.36888 22.0673 7.34628 22.1571 7.32369 22.2244C7.30109 22.2917 7.23331 22.3591 7.16553 22.3591C7.09774 22.3815 7.00737 22.3591 6.96218 22.3142C6.64586 21.9326 6.62326 21.4613 6.4877 21.0125C6.35213 20.631 6.32954 20.2046 6.05841 19.823C5.96803 20.2046 5.90024 20.5412 5.80987 20.8778C5.71949 21.192 5.49355 21.2818 5.17723 21.192C4.83831 21.1023 4.77053 21.192 4.81572 21.5287C4.86091 21.8429 4.95129 22.1346 4.97388 22.4488C4.99648 22.6059 4.95128 22.763 4.92869 22.8977C4.9061 22.9426 4.81572 22.9875 4.74794 23.0099C4.72534 23.0099 4.65756 23.0099 4.65756 22.9875C4.56719 22.8528 4.45421 22.7406 4.43162 22.6059C4.25087 21.6858 4.07011 20.7656 3.91195 19.8455C3.88935 19.7333 3.91195 19.621 3.93454 19.5088C3.95714 19.4415 4.00233 19.3293 4.04751 19.3293C4.16049 19.3068 4.29605 19.2844 4.36383 19.3517C4.54459 19.4864 4.70275 19.6884 4.83831 19.8455C4.8835 19.9128 4.92869 20.0699 5.22242 20.1372Z" fill="#74C6CC"/>
<path d="M11.7974 20.1149C11.6618 20.3169 11.8652 20.474 11.8426 20.676C11.82 20.7882 11.82 20.9229 11.707 20.9677C11.5263 21.0351 11.4133 20.9229 11.3455 20.7658C11.2551 20.5413 11.1874 20.3169 11.1196 20.1149C10.9388 19.5539 10.7581 19.0152 10.5773 18.4542C10.5321 18.2746 10.4869 18.0726 10.4869 17.8931C10.4869 17.7809 10.5321 17.6462 10.6903 17.6462C10.7581 17.6462 10.871 17.6687 10.8936 17.7136C11.0066 17.9155 11.097 18.14 11.21 18.3419C11.3229 18.5439 11.5037 18.4542 11.5941 18.3195C11.7974 18.0277 11.9782 17.7136 12.1815 17.4442C12.2719 17.332 12.3849 17.1749 12.5656 17.2871C12.7916 17.4218 12.7238 17.6238 12.6334 17.8033C12.4752 18.0726 12.2945 18.3195 12.1363 18.5888C11.7974 19.1499 11.82 19.1948 12.2719 19.711C12.5882 20.07 12.9045 20.4067 13.2209 20.7658C13.2886 20.8555 13.2886 20.9902 13.1757 21.08C13.0627 21.1473 12.9497 21.1473 12.8593 21.0575C12.6786 20.9004 12.5204 20.7433 12.3397 20.5862C12.1589 20.3842 12.0459 20.1598 11.7974 20.1149Z" fill="#71C3CB"/>
<path d="M8.88263 18.3196C9.08598 18.3644 9.19895 18.544 9.22155 18.7235C9.33452 19.2621 9.44749 19.7783 9.49268 20.317C9.53787 20.7209 9.62825 21.0576 10.0123 21.282C10.1027 21.3493 10.1479 21.484 10.0801 21.5737C10.0124 21.6635 9.89938 21.7308 9.809 21.7308C9.4023 21.7757 9.15376 21.6411 9.08598 21.3269C8.92782 20.4292 8.76966 19.509 8.63409 18.5889C8.58891 18.4318 8.74707 18.2747 8.88263 18.3196Z" fill="#76C8CE"/>
<path d="M8.31781 20.8107C8.29522 21.08 8.25003 21.1698 8.13706 21.2146C8.00149 21.2595 7.88852 21.1698 7.86593 21.0575C7.63998 20.3169 7.41404 19.5763 7.21069 18.8357C7.1881 18.7459 7.27848 18.5889 7.34626 18.5664C7.41404 18.5215 7.61739 18.5664 7.63998 18.6337C8.06927 19.3519 8.22743 20.1374 8.31781 20.8107Z" fill="#78C8CE"/>
</svg>
