<svg width="31" height="28" viewBox="0 0 31 28" fill="none" xmlns="http://www.w3.org/2000/svg">
<path d="M5.31531 17.2037C3.16885 15.7224 1.49687 13.7699 0.593101 11.2339C-0.175106 9.10183 -0.242889 6.94733 0.660884 4.81528C1.4065 3.0423 2.69437 1.76307 4.41154 0.932686C6.39984 -0.0323503 8.47852 -0.189449 10.625 0.192077C12.4325 0.506275 14.0819 1.202 15.5731 2.23436C17.7648 3.76047 19.4368 5.73543 20.3179 8.27145C21.041 10.3586 21.0861 12.4682 20.2276 14.5554C19.6401 16.0142 18.646 17.1363 17.3355 17.9891C15.5505 19.1337 13.5622 19.5377 11.4384 19.3806C9.24672 19.2011 7.23583 18.438 5.31531 17.2037Z" fill="#FFE326"/>
<path d="M21.8317 14.7573C21.6962 14.6227 21.3573 14.6227 21.4476 14.3085C21.538 14.0392 21.7866 14.1289 21.9673 14.084C23.1196 13.8596 24.2719 13.7025 25.4468 13.6352C26.1698 13.5903 26.8703 13.6576 27.5707 13.7923C27.7966 13.8372 28.0226 13.9045 28.2485 14.0167C28.6552 14.2187 28.723 14.5778 28.4293 14.9369C28.2259 15.1837 28 15.3633 27.7063 15.4979C27.5255 15.5877 27.3673 15.6775 27.1414 15.8121C27.3222 15.9468 27.5029 15.9243 27.6611 15.9692C28.2485 16.059 28.7682 16.2834 29.2879 16.5527C29.3105 16.5527 29.3105 16.5752 29.3331 16.5752C29.6042 16.7996 29.9431 16.9792 29.8979 17.4056C29.8527 17.7871 29.4912 17.8769 29.1975 17.9891C28.6326 18.1911 28.0452 18.2808 27.4577 18.3257C27.277 18.3482 27.0962 18.3257 26.8703 18.4379C27.5707 18.8195 28.2485 19.1561 28.8812 19.4927C29.3556 19.7396 29.8075 20.0089 30.169 20.3904C30.3046 20.5475 30.4402 20.7046 30.508 20.8842C30.7113 21.4004 30.4628 21.8941 29.9431 22.0512C29.6494 22.141 29.333 22.1185 29.0393 22.0736C28.5197 21.9839 28.0226 21.8268 27.5255 21.6697C27.4125 21.6248 27.3222 21.5575 27.164 21.6472C27.5707 21.9839 27.9774 22.3205 28.3163 22.702C28.6326 23.0836 28.9264 23.4651 29.0167 23.9813C29.1071 24.5648 28.8134 24.8565 28.2485 24.7892C27.774 24.7219 27.3448 24.5199 26.9155 24.2955C26.5088 24.0935 26.1021 23.8691 25.718 23.6446C25.605 23.7793 25.7406 23.8691 25.7857 23.9588C26.1473 24.6994 26.3506 25.4849 26.4862 26.2704C26.5314 26.6071 26.5539 26.9437 26.4862 27.2804C26.3732 27.8639 25.9439 28.0883 25.379 27.8639C24.8368 27.6619 24.4075 27.3028 24.0234 26.8988C23.6167 26.4949 23.2552 26.046 22.9163 25.5747C22.8485 25.4849 22.8259 25.3952 22.6677 25.3503C22.5999 25.5523 22.6225 25.7318 22.6225 25.9338C22.5999 26.2704 22.5999 26.6071 22.487 26.9213C22.1481 27.9088 21.0183 28.1556 20.2953 27.415C19.9564 27.0559 19.6627 26.652 19.4141 26.2255C19.3238 26.0684 19.2334 25.9114 19.1204 25.7318C18.9849 25.9787 18.9623 26.2255 18.8267 26.4275C18.5556 26.8539 18.1489 26.9437 17.7422 26.6295C17.5388 26.4724 17.3807 26.2704 17.2677 26.046C16.9966 25.5747 16.7932 25.081 16.7028 24.5423C16.4769 23.3304 16.2961 22.1185 16.3639 20.8617C16.3865 20.5027 16.4317 20.4353 16.7706 20.5027C16.9062 20.5251 16.9966 20.5251 17.0869 20.4353C18.7589 18.6175 20.6568 17.0016 21.8769 14.8247C21.8091 14.8247 21.8317 14.8022 21.8317 14.7573Z" fill="#88B526"/>
<path d="M4.61491 13.0517C4.70528 13.1415 4.79566 13.2312 4.72788 13.3435C4.6601 13.4332 4.54712 13.4332 4.45675 13.4108C4.43415 13.4108 4.43415 13.3883 4.41156 13.3883C4.27599 13.2986 4.07264 13.2761 4.05005 13.0517C4.05005 12.9844 4.07264 12.917 4.16302 12.8946C4.34377 12.8273 4.47934 12.9844 4.61491 13.0517Z" fill="#EBC45E"/>
<path d="M18.2167 11.0319C18.1037 10.9421 17.9004 10.8524 18.036 10.6728C18.1715 10.4484 18.3297 10.6279 18.4653 10.7177C18.6008 10.8075 18.7364 10.9197 18.6008 11.0768C18.4653 11.2788 18.3297 11.0992 18.2167 11.0319Z" fill="#EDC55D"/>
<path d="M17.7873 15.498C17.9229 15.5878 18.0133 15.6776 17.9455 15.8122C17.8777 15.9469 17.7647 15.9244 17.6292 15.8795C17.5614 15.8571 17.5162 15.8122 17.4484 15.7898C17.3354 15.7224 17.2677 15.6102 17.358 15.498C17.4258 15.4082 17.5162 15.4082 17.6292 15.4307C17.7196 15.4531 17.7647 15.498 17.7873 15.498Z" fill="#EDC765"/>
<path d="M13.1104 3.37896C12.9974 3.26675 12.7715 3.19942 12.907 3.01988C13.02 2.86278 13.2008 2.97499 13.3137 3.04232C13.4493 3.10965 13.5849 3.2443 13.4493 3.4014C13.3363 3.5585 13.2233 3.4014 13.1104 3.37896Z" fill="#EAC158"/>
<path d="M7.30366 1.17947C7.21328 1.11214 7.1681 1.02237 7.21328 0.932602C7.25847 0.797946 7.50701 0.797946 7.66517 0.91016C7.75555 0.977488 7.80074 1.04482 7.75555 1.15703C7.68776 1.29169 7.46182 1.29169 7.30366 1.17947Z" fill="#EEC65E"/>
<path d="M13.5171 7.91223C13.4267 7.8449 13.2459 7.77758 13.3589 7.62048C13.4719 7.44093 13.6074 7.55315 13.743 7.64292C13.856 7.71025 13.9915 7.82246 13.8786 7.95712C13.7656 8.09177 13.63 8.002 13.5171 7.91223Z" fill="#EAC159"/>
<path d="M5.60903 17.0913C5.65422 17.0689 5.6994 17.0016 5.81238 17.0689C5.90275 17.2933 5.76719 17.6749 6.26426 17.6973C6.26426 17.4504 6.26426 17.2036 6.24167 16.9567C6.21907 16.7098 6.30945 16.5527 6.49021 16.3956C7.57473 15.5877 8.63667 14.7349 9.6986 13.9045C10.0375 13.6576 10.3764 13.4332 10.7379 13.1639C10.7605 13.2536 10.7831 13.2985 10.7831 13.3434C10.7605 14.9368 10.7379 16.5078 10.7153 18.1013C10.7153 18.3033 10.625 18.393 10.4894 18.5052C10.2635 18.6848 9.99232 18.8194 9.81157 19.0663C10.1505 19.3132 10.3764 19.0663 10.6024 18.9317C10.625 18.9765 10.6702 18.999 10.6702 19.0214C10.6927 19.201 10.7605 19.3356 10.9639 19.2907C11.1672 19.2458 11.0994 19.0663 11.0769 18.9541C11.0543 18.6399 11.1672 18.4604 11.4158 18.2808C12.3421 17.6524 13.2459 16.9791 14.1497 16.3507C14.4886 16.1039 14.8049 15.8346 15.1664 15.655C15.2794 15.7672 15.2116 15.8794 15.189 15.9692C15.0534 16.8894 14.9179 17.8095 14.7823 18.7297C14.7597 18.8194 14.6693 18.999 14.8501 19.0214C15.0083 19.0663 15.1438 18.999 15.1664 18.797C15.189 18.7072 15.189 18.595 15.2116 18.5052C15.3472 17.5626 15.5053 16.5976 15.6409 15.655C15.6861 15.3633 15.7765 15.1613 16.025 15.0042C16.4091 14.7573 16.7706 14.4656 17.1547 14.2187C18.3296 13.4781 19.4367 12.7375 20.5665 11.9969C20.815 11.8398 20.9506 11.6827 20.815 11.3685C19.1882 12.4457 17.5162 13.4781 15.9346 14.6002C15.8443 14.4656 15.8894 14.3758 15.8894 14.3085C16.138 12.6701 16.3865 11.0318 16.6125 9.3935C16.6576 9.05686 16.7932 8.85487 17.0869 8.67533C17.9003 8.18159 18.7137 7.64297 19.5271 7.12678C19.6401 7.05946 19.7983 6.99213 19.6853 6.81259C19.5723 6.6106 19.4367 6.70037 19.3012 6.79014C19.0752 6.9248 18.8493 7.0819 18.6234 7.21655C18.0359 7.59808 17.4484 7.95716 16.7706 8.38357C16.861 7.68785 16.9514 7.05946 17.0417 6.4535C17.1547 5.66801 17.2677 4.88251 17.4033 4.09702C17.4484 3.85015 17.4259 3.62572 17.1321 3.53595C17.0192 3.71549 17.0192 3.89503 16.9966 4.07457C16.7932 5.46602 16.5673 6.87991 16.3865 8.27136C16.3413 8.56312 16.2509 8.7651 15.9798 8.9222C14.7597 9.7077 13.5848 10.5605 12.4325 11.4582C12.071 11.7275 11.6869 11.9969 11.2802 12.2886C11.2576 12.1764 11.235 12.1315 11.235 12.0866C11.2576 10.2688 11.3028 8.4509 11.3254 6.6106C11.3254 6.38617 11.461 6.2964 11.6191 6.18419C12.5681 5.55579 13.4944 4.90495 14.466 4.32144C15.1438 3.89503 15.8443 3.49106 16.4995 2.97488C16.3413 2.72801 16.2058 2.70557 15.9798 2.86267C14.6016 3.80526 13.1329 4.63564 11.7773 5.60068C11.6643 5.69045 11.5739 5.82511 11.348 5.75778C11.3706 4.1419 11.4158 2.52603 11.4158 0.910152C11.4158 0.708167 11.5287 0.595954 11.6417 0.461297C11.3254 0.304198 11.0543 0.23687 10.8509 0.551068C10.8057 0.618396 10.7153 0.640839 10.6476 0.685724C9.56303 1.38145 8.5011 2.09962 7.41657 2.79534C6.87431 3.15442 6.33205 3.51351 5.722 3.89503C5.65422 2.70557 5.60903 1.62832 5.54124 0.528625C5.22492 0.506183 5.13455 0.640839 5.15714 0.910152C5.20233 1.85275 5.22492 2.79534 5.27011 3.73793C5.29271 4.02969 5.20233 4.20923 4.95379 4.36633C4.1404 4.86007 3.3496 5.39869 2.5588 5.91488C2.1295 6.20663 1.70021 6.47594 1.20314 6.81259C1.09017 5.9822 0.977194 5.2416 0.864222 4.4561C0.570496 4.90495 0.547902 4.99473 0.59309 5.37625C0.638279 5.66801 0.660873 5.98221 0.728656 6.27396C0.841628 6.7677 0.819034 7.19411 0.254176 7.41854C0.231581 7.41854 0.231581 7.44098 0.208987 7.44098C-0.016956 7.57564 -0.0395503 7.75518 0.0734212 7.97961C0.367147 7.86739 0.547902 7.62052 0.864222 7.53075C0.909411 7.77762 0.954599 8.00205 0.977194 8.22648C1.15795 9.50571 1.3387 10.7625 1.49686 12.0417C1.54205 12.311 1.7454 12.6252 1.42908 12.8946C1.38389 12.9394 1.42908 13.0741 1.49686 13.119C1.65502 13.2312 1.67762 13.4332 1.79059 13.5903C1.88097 13.7474 1.94875 13.9269 2.17469 14.0167C2.1521 13.7474 2.1295 13.5005 2.08432 13.2536C2.03913 12.9843 2.1295 12.8272 2.35545 12.6477C3.19144 12.0417 4.00483 11.3909 4.81823 10.7849C5.04417 10.6278 5.24752 10.4259 5.51865 10.3361C5.60903 10.5381 5.58643 10.7176 5.58643 10.8747C5.65422 12.5355 5.722 14.1738 5.81238 15.8346C5.83497 16.2385 5.76719 16.5078 5.40568 16.7323C5.29271 16.7996 5.06676 16.8669 5.22492 17.0689C5.3379 17.2484 5.47346 17.2036 5.60903 17.0913ZM15.6409 9.64037C15.7991 9.52815 15.9798 9.43838 16.1606 9.32617C16.2509 9.52815 16.1832 9.68525 16.1606 9.84235C15.9346 11.4358 15.6861 13.0068 15.4601 14.6002C15.415 14.8471 15.3698 15.0491 15.1438 15.2062C13.8785 16.0814 12.6359 17.0016 11.3706 17.8768C11.3254 17.9217 11.2576 17.9442 11.1898 17.9666C11.0769 17.8544 11.122 17.6973 11.1446 17.5851C11.1672 16.1263 11.1898 14.69 11.2124 13.2312C11.2124 12.9843 11.2576 12.7823 11.4835 12.6252C12.8618 11.6378 14.2175 10.583 15.6409 9.64037ZM5.722 4.74786C5.722 4.52343 5.722 4.34389 5.94794 4.18679C7.55214 3.15442 9.13374 2.12206 10.7153 1.08969C10.7605 1.04481 10.8283 0.999923 10.9187 1.04481C11.0317 1.13458 10.9639 1.24679 10.9639 1.35901C10.9413 2.84022 10.9187 4.32144 10.8961 5.80266C10.8961 5.9822 10.8735 6.1393 10.6927 6.27396C9.11115 7.32877 7.55214 8.38357 5.97054 9.46082C5.83497 9.32617 5.90275 9.14663 5.88016 8.98953C5.83497 7.57564 5.78978 6.16175 5.722 4.74786ZM2.06172 12.4008C1.94875 12.3335 1.94875 12.2662 1.92615 12.1988C1.72281 10.6503 1.51946 9.12418 1.29351 7.57564C1.27092 7.3961 1.27092 7.26144 1.45167 7.14923C2.69436 6.36373 3.91445 5.53335 5.15714 4.74786C5.17974 4.72541 5.22492 4.72541 5.24752 4.72541C5.36049 4.83763 5.3153 4.97228 5.3379 5.10694C5.40568 6.56572 5.45087 8.00205 5.51865 9.46082C5.51865 9.7077 5.47346 9.86479 5.27011 10.0219C4.18559 10.7625 3.12365 11.5704 2.06172 12.4008ZM6.1287 14.6002C6.06091 13.2088 6.01572 11.7949 5.94794 10.4034C5.94794 10.179 5.92535 9.97701 6.15129 9.84235C7.66511 8.83243 9.17893 7.80006 10.6927 6.7677C10.7153 6.74526 10.7605 6.74526 10.8735 6.70037C10.8735 7.35121 10.8509 7.93472 10.8509 8.51823C10.8509 9.75258 10.8283 11.0094 10.8057 12.2662C10.8057 12.4906 10.7605 12.6701 10.5346 12.8272C9.13374 13.7923 7.82327 14.8471 6.49021 15.8794C6.39983 15.9468 6.33205 16.0141 6.19648 16.0365C6.17389 15.5428 6.15129 15.0715 6.1287 14.6002Z" fill="#E9BF53"/>
<path d="M8.41069 10.9645C8.3429 10.9196 8.29771 10.8972 8.27512 10.8523C8.20734 10.785 8.18474 10.7177 8.22993 10.6279C8.27512 10.5381 8.3655 10.5381 8.45587 10.5606C8.56885 10.6279 8.68182 10.6952 8.77219 10.785C8.83998 10.8523 8.86257 10.9196 8.79479 11.0094C8.7496 11.0543 8.68182 11.0767 8.61403 11.0543C8.52366 11.0543 8.45587 11.0094 8.41069 10.9645Z" fill="#EAC158"/>
<path d="M8.50108 5.66795C8.47848 5.64551 8.4107 5.60063 8.36551 5.55574C8.29773 5.48841 8.25254 5.42108 8.29773 5.33131C8.36551 5.2191 8.45589 5.2191 8.54627 5.28643C8.61405 5.30887 8.65924 5.35376 8.70443 5.39864C8.8174 5.46597 8.95297 5.57818 8.83999 5.71284C8.77221 5.8475 8.63664 5.75772 8.50108 5.66795Z" fill="#E9BF53"/>
<path d="M13.9463 13.6351C13.7656 13.5229 13.6526 13.2984 13.743 13.1862C13.8334 13.074 13.9463 13.0964 14.0593 13.1638C14.2627 13.2984 14.3756 13.5453 14.2627 13.6575C14.1723 13.7248 14.0819 13.7024 13.9463 13.6351Z" fill="#EDC86A"/>
<path d="M3.16882 8.18163C3.07844 8.1143 2.96547 8.02453 3.03325 7.88987C3.12363 7.73277 3.25919 7.75521 3.39476 7.84498C3.50773 7.91231 3.55292 8.02453 3.48514 8.13674C3.39476 8.29384 3.28179 8.24895 3.16882 8.18163Z" fill="#EDC55D"/>
<path d="M5.88016 0.483753C5.83497 0.797951 5.78978 1.11215 5.76719 1.4039C5.63162 2.79535 5.74459 4.14192 6.15129 5.48848C6.60318 6.99214 7.39398 8.31626 8.20737 9.64038C8.81742 10.6279 9.51784 11.5256 10.2183 12.4457C10.5572 12.8946 10.9865 13.2537 11.4384 13.5903C11.7773 13.8372 12.071 14.1514 12.4325 14.3758C13.6526 15.1837 14.9631 15.6999 16.4317 15.9019C17.1547 16.0141 17.8777 15.9019 18.6008 15.8346C18.8945 15.8121 19.2108 15.7897 19.5497 15.7672C19.5497 15.9692 19.4142 16.1039 19.3012 16.2385C18.4426 17.2485 17.4484 18.0564 16.2284 18.595C15.4601 18.9317 14.6468 19.1336 13.8108 19.2683C12.2518 19.5152 10.7379 19.3581 9.22412 18.9765C8.32034 18.7521 7.48435 18.3706 6.64836 17.9666C6.01572 17.6524 5.42827 17.2933 4.88601 16.8669C3.68851 15.9692 2.67177 14.892 1.83578 13.6576C1.13535 12.6253 0.683466 11.4807 0.321957 10.3137C0.0282312 9.4384 -0.0169574 8.54069 0.0282312 7.64298C0.0734198 6.6555 0.276769 5.69046 0.683466 4.74787C1.22573 3.44619 2.1521 2.43627 3.28181 1.60589C3.91445 1.13459 4.61488 0.820393 5.36049 0.551081C5.49605 0.506195 5.63162 0.46131 5.88016 0.483753Z" fill="#FBE2EA"/>
<path d="M21.0635 22.9939C20.9279 23.0837 20.9279 23.1735 20.9053 23.2633C20.6794 24.3854 19.2334 24.9465 18.1714 24.2283C17.9907 24.0936 17.7873 24.0039 17.6518 23.8243C17.5162 23.6448 17.358 23.5774 17.1999 23.8019C17.1773 23.8468 17.1321 23.8916 17.1095 23.9141C16.6802 24.2507 16.5898 24.2283 16.4769 23.7121C16.2509 22.7695 16.2735 21.8045 16.2961 20.8394C16.2961 20.5477 16.3865 20.4579 16.6576 20.5477C16.8384 20.5926 16.9287 20.5701 17.0417 20.4355C17.3354 20.1213 17.6743 19.8295 17.9229 19.4704C18.0133 19.3582 18.1036 19.2684 18.307 19.2236C18.3974 19.6724 18.307 20.0539 18.0133 20.3681C17.9229 20.4579 17.8099 20.5477 17.6969 20.615C17.4936 20.7497 17.4484 20.9517 17.5388 21.1536C17.8777 21.8269 18.2844 22.4329 18.917 22.8817C19.0526 22.9715 19.1882 23.0613 19.3463 22.9715C19.5045 22.8817 19.5045 22.7022 19.4819 22.5675C19.4367 22.2084 19.4141 21.8494 19.2559 21.5352C19.0526 21.0863 19.256 20.7497 19.5271 20.4355C19.7078 20.2335 19.9564 20.2784 20.1823 20.3457C20.3631 20.413 20.5212 20.5028 20.6342 20.6599C20.9731 21.1312 21.4928 21.4229 21.9673 21.7596C22.148 21.8718 22.3288 22.0065 22.5321 21.8942C22.7581 21.782 22.8033 21.5352 22.7581 21.3107C22.6451 20.5028 22.4869 19.7173 21.9447 19.044C21.7187 18.7747 21.4702 18.5054 21.2668 18.2136C21.1087 18.0117 20.9957 17.9668 20.7698 18.1014C20.2727 18.3932 19.7078 18.5278 19.1656 18.7074C19.03 18.7523 18.8718 18.8196 18.7363 18.7523C18.7137 18.6401 18.7815 18.5952 18.8493 18.5278C19.6401 17.7648 20.3857 16.9793 20.9957 16.0591C21.0409 15.9918 21.0635 15.9469 21.1087 15.902C21.2668 15.7001 21.3798 15.7001 21.5606 15.8796C21.6961 16.0143 21.7639 16.1714 21.8091 16.3733C21.8317 16.508 21.8995 16.6202 22.0802 16.6427C22.8033 16.7549 23.5263 17.0242 24.2945 16.9344C24.656 16.8895 24.6786 16.8671 24.4978 16.5529C24.1137 15.902 23.6167 15.3634 22.9614 14.9819C22.8033 14.8921 22.6451 14.8472 22.4869 14.8472C22.0576 14.8472 21.8543 14.6228 21.7187 14.2188C22.148 14.0393 22.5773 13.972 23.0066 13.9495C23.6167 13.9046 24.2041 13.7475 24.8142 13.7251C25.1983 13.7251 25.2208 13.77 25.1983 14.1515C25.1757 14.3759 24.8367 14.4881 25.0175 14.735C25.1305 14.8921 25.2886 15.0268 25.4016 15.2063C25.7179 15.6103 25.9665 16.0367 26.1472 16.5304C26.4635 17.3384 26.0116 18.1688 25.1531 18.3707C24.6108 18.5054 24.0459 18.5278 23.4359 18.5054C23.5715 18.8196 23.707 19.1113 23.8426 19.4031C24.1589 20.1213 24.2719 20.8843 24.2945 21.6698C24.2945 22.7246 23.21 23.9141 21.8091 23.3979C21.5606 23.2408 21.2894 23.151 21.0635 22.9939Z" fill="#FBE2EA"/>
<path d="M21.4929 17.1813C21.5833 17.4506 21.7414 17.6526 21.877 17.877C22.3967 18.7074 22.8711 19.5602 23.2553 20.4579C23.4586 20.9068 23.5716 21.3781 23.5716 21.8943C23.549 22.7695 23.0293 23.1062 22.2159 22.8144C21.7188 22.6349 21.3799 22.2533 21.0184 21.8943C20.7699 21.6474 20.5439 21.3781 20.2728 21.0863C20.205 21.2659 20.2728 21.4005 20.2954 21.5352C20.3632 22.0289 20.4761 22.5002 20.4987 22.9939C20.4987 23.2633 20.4987 23.5326 20.3406 23.7794C20.092 24.2059 19.6853 24.3181 19.2561 24.0488C18.9171 23.8468 18.6912 23.5101 18.4653 23.1959C18.036 22.59 17.7196 21.9616 17.4033 21.2883C17.2452 21.3781 17.2678 21.5352 17.2452 21.6474C17.1548 22.0962 16.9514 22.4778 16.6577 22.8144C16.1832 23.3979 15.5506 23.353 15.1439 22.7246C15.0309 22.5451 14.9405 22.3431 14.8728 22.1187C14.579 21.2434 14.3983 20.3457 14.3305 19.448C14.3079 19.0665 14.3983 18.9094 14.7824 18.842C15.9799 18.6176 16.974 18.0117 17.8778 17.2935C18.646 16.6875 19.0979 15.8347 19.5272 15.0043C19.9791 14.1515 20.318 13.2538 20.3858 12.2663C20.4084 12.0643 20.5213 11.9746 20.7247 11.9746C21.6285 11.9746 22.5322 11.9297 23.4134 11.9297C23.7975 11.9297 24.1816 11.997 24.5657 12.1541C24.8369 12.2663 24.995 12.4683 25.0402 12.7601C25.0854 13.0518 24.9046 13.2314 24.6787 13.3885C24.272 13.6578 23.7975 13.8149 23.323 13.9495C23.0519 14.0169 22.7808 14.1066 22.4644 14.1964C22.6 14.3759 22.7808 14.4208 22.9163 14.4882C23.6845 14.8921 24.4302 15.341 25.0402 15.9694C25.2436 16.1714 25.4017 16.4182 25.5147 16.6875C25.7406 17.2935 25.4469 17.7424 24.7917 17.7648C24.4302 17.7872 24.0686 17.7424 23.7297 17.6526C23.0067 17.5179 22.2837 17.3608 21.4929 17.1813Z" fill="#98C12B"/>
<path d="M21.0861 14.1065C20.6568 14.3309 20.702 14.8022 20.702 15.2735C20.702 15.7897 20.3857 16.1936 19.9564 16.4629C19.7079 16.62 19.5949 16.7996 19.5497 17.0913C19.4141 17.9217 18.9397 18.393 18.1037 18.5501C17.8099 18.595 17.5614 18.7072 17.4032 18.9765C17.2677 19.1785 17.0869 19.3805 16.8836 19.5376C16.1154 20.1884 15.0308 19.9416 14.5112 19.3356C14.3304 19.1112 14.353 18.9765 14.6015 18.9541C15.302 18.8643 15.912 18.5277 16.5221 18.2135C17.3129 17.7871 18.0811 17.3382 18.5555 16.5303C18.6911 16.3058 18.8493 16.0814 19.0074 15.857C19.753 14.8022 20.2049 13.6576 20.3405 12.3784C20.3631 12.1988 20.4535 12.0417 20.6342 12.0417C20.8602 12.0417 21.1313 11.9295 21.2669 12.2213C21.5154 12.7599 21.4702 13.2985 21.2443 13.8147C21.2443 13.9045 21.1991 13.9718 21.0861 14.1065Z" fill="#FBE2EA"/>
</svg>
