<svg width="23" height="20" viewBox="0 0 23 20" fill="none" xmlns="http://www.w3.org/2000/svg">
<path d="M8.19504 14.5203C6.61344 14.453 4.96406 14.0939 3.33727 13.6451C2.8176 13.488 2.27533 13.3758 1.77826 13.1064C1.37156 12.882 1.28118 12.7025 1.46194 12.2536C1.66529 11.715 1.91382 11.1764 2.16236 10.6377C3.49542 7.63042 5.03184 4.73531 6.83939 1.97486C7.1783 1.45868 7.51721 0.920053 7.85613 0.40387C8.03688 0.112115 8.33061 -0.0225407 8.66952 0.0896728C9.18919 0.246772 9.73146 0.358986 10.2285 0.583413C12.7365 1.68311 15.3122 2.64814 17.7524 3.92738C17.888 3.9947 18.0462 4.06203 18.1817 4.12936C18.5884 4.35379 19.0855 4.466 19.2663 4.98218C19.447 5.58814 19.6504 6.19409 19.4696 6.82249C19.1759 7.85485 18.7692 8.81989 17.9332 9.53806C17.6847 9.74004 17.5039 9.98691 17.3457 10.2562C16.4646 11.8721 15.0411 12.9045 13.3691 13.6002C11.7649 14.2735 10.0704 14.5203 8.19504 14.5203Z" fill="#FF5D6C"/>
<path d="M19.56 6.08197C19.56 6.32885 19.5826 6.41861 19.56 6.48594C19.2211 7.69785 18.7692 8.84243 17.775 9.69525C17.4813 9.94212 17.3232 9.96456 17.052 9.71769C16.6905 9.35861 16.329 8.99953 15.9675 8.64044C14.9282 7.58564 13.8888 6.53083 12.8495 5.45358C12.5332 5.11694 12.1717 4.80274 11.9457 4.37633C11.765 4.03969 11.4486 3.79282 11.1323 3.54595C10.093 2.7829 9.12142 1.95252 8.24024 0.98748C8.17246 0.897709 8.08208 0.807938 8.0143 0.718167C7.90133 0.583511 7.85614 0.448854 7.94652 0.291755C8.03689 0.112213 8.21765 0 8.421 0C8.53397 0 8.64694 0.0448852 8.75991 0.067328C9.82184 0.269312 10.7482 0.785495 11.7198 1.16702C13.8662 2.01984 15.9449 3.00732 18.0236 3.9948C18.1365 4.03969 18.2269 4.10702 18.3399 4.1519C19.3115 4.55587 19.4922 5.36381 19.56 6.08197Z" fill="#FFCDDA"/>
<path d="M9.39256 19.4355C6.61346 19.5028 4.0377 18.8071 1.71049 17.281C1.2812 17.0117 0.829314 16.7648 0.400022 16.4731C-0.0292695 16.2037 -0.0744602 16.0691 0.0837 15.5978C0.309643 14.8572 0.580777 14.1166 0.851909 13.376C0.942286 13.1291 1.05526 12.8149 1.23601 12.6802C1.52974 12.4783 1.6653 12.9047 1.91384 12.972C2.95318 13.2862 3.96992 13.7126 5.07704 13.8248C6.25195 13.9595 7.42685 14.0492 8.60176 14.0492C10.4093 14.0492 12.1039 13.6453 13.6855 12.7476C14.6118 12.2314 15.5156 11.6703 16.2612 10.9297C16.4646 10.7277 16.6679 10.5482 16.8035 10.3238C17.1198 9.76268 17.5943 9.38116 17.9784 8.88742C18.9048 7.76528 19.6956 6.53093 19.1533 4.9375C19.1307 4.87017 19.1307 4.7804 19.1759 4.71307C19.2437 4.60086 19.3792 4.6233 19.4696 4.69063C20.2604 5.20681 21.0286 5.72299 21.7968 6.26162C22.1583 6.50849 22.4295 6.86757 22.4973 7.31643C22.6102 8.01215 22.7458 8.70787 22.7006 9.4036C22.565 11.7152 21.5935 13.6677 20.0119 15.3734C18.2495 17.3034 15.9901 18.3358 13.5273 18.9866C12.8043 19.1662 12.0587 19.3233 11.3357 19.3906C10.7256 19.5253 10.0704 19.4579 9.39256 19.4355Z" fill="#A3E154"/>
<path d="M17.6847 9.38101C18.227 8.88727 18.4755 8.28132 18.8144 7.69781C19.3115 6.84499 19.5148 5.96972 19.2211 5.00468C19.1985 4.91491 19.2211 4.73537 19.2889 4.71293C19.3567 4.66804 19.5148 4.71293 19.6052 4.75781C20.2604 5.18423 20.9157 5.61064 21.5483 6.05949C22.2261 6.53079 22.678 7.13674 22.6102 8.01201C22.6102 8.05689 22.6102 8.10178 22.6102 8.12422C22.7458 8.81994 22.7232 9.47078 22.6102 10.1889C22.5199 10.7276 22.4521 11.2662 22.2939 11.7824C22.1132 12.3659 21.7743 12.9045 21.4805 13.4656C21.3224 13.7349 21.0286 13.7349 20.7801 13.5105C20.5994 13.3534 20.4638 13.1738 20.3056 12.9943C20.2378 12.9045 20.1927 12.7923 20.1249 12.6801C19.3567 11.5804 18.724 10.3685 17.6847 9.38101Z" fill="#FFCDDA"/>
<path d="M16.781 10.6155C16.3743 11.7825 15.7416 12.7475 14.6571 13.4433C13.3466 14.2961 11.9232 14.7449 10.4094 15.0591C8.75998 15.4182 7.11059 15.2387 5.4838 15.1714C4.3089 15.1265 3.20178 14.6776 2.13984 14.1614C1.68796 13.937 1.32645 13.5555 1.1005 13.0842C1.05532 12.9944 1.1005 12.8597 1.14569 12.77C1.21348 12.6353 1.34904 12.6578 1.46202 12.7251C2.68211 13.3759 3.99258 13.6901 5.37083 13.8697C6.45536 14.0043 7.53989 14.0941 8.64701 14.0941C10.6127 14.0941 12.4429 13.5779 14.1148 12.568C15.0638 11.9845 15.945 11.3336 16.781 10.6155Z" fill="#FFCDDA"/>
<path d="M21.5709 13.6677C21.5257 13.735 21.5031 13.8023 21.4353 13.8472C21.3675 13.8921 21.2772 13.8921 21.2094 13.8697C21.0738 13.8023 20.9382 13.7126 20.8253 13.6228C19.6956 12.4333 18.5658 11.2439 17.4361 10.0544C17.165 9.78508 17.1198 9.44844 17.3232 9.35867C17.5943 9.24646 17.7524 9.44844 17.9106 9.60554C19.0629 10.8174 20.2378 12.0294 21.3901 13.2637C21.5031 13.3759 21.5935 13.5106 21.5709 13.6677Z" fill="#9CCF55"/>
<path d="M16.216 17.9989C16.1482 18.1111 16.1256 18.2009 16.0578 18.2234C15.9674 18.2458 15.8319 18.2682 15.7415 18.2234C15.6511 18.1785 15.5833 18.0663 15.5156 17.9541C14.7925 16.5402 14.0469 15.1263 13.3239 13.6899C13.2787 13.5777 13.2109 13.4655 13.2109 13.3533C13.2109 13.2411 13.2561 13.1064 13.3465 13.0615C13.4821 12.9718 13.6628 12.9942 13.7532 13.1513C13.9791 13.5553 14.2051 13.9592 14.431 14.3857C14.9733 15.418 15.493 16.4504 16.0352 17.5052C16.1256 17.6623 16.1708 17.8418 16.216 17.9989Z" fill="#9CCF56"/>
<path d="M6.72645 15.9569C6.72645 15.306 6.72644 14.8796 6.74904 14.4532C6.74904 14.2961 6.81682 14.1614 6.9072 14.0268C6.95239 13.937 7.08795 13.8697 7.20092 13.937C7.26871 13.9595 7.35908 14.0268 7.35908 14.0717C7.40427 14.2512 7.42687 14.4532 7.42687 14.6552C7.44946 15.9793 7.38168 17.3034 7.56243 18.6275C7.63022 19.2111 7.44946 19.5253 7.20092 19.4579C6.79423 19.3457 6.88461 18.9642 6.88461 18.6724C6.86201 17.685 6.61347 16.7199 6.72645 15.9569Z" fill="#A1D361"/>
<path d="M12.2394 19.0762C12.1942 19.2557 12.1716 19.4128 11.9909 19.4577C11.8101 19.5026 11.6745 19.4128 11.6294 19.2557C11.4712 18.6273 11.2904 17.9765 11.1549 17.3257C10.9515 16.2933 10.7482 15.2834 10.5674 14.251C10.5448 14.0939 10.6126 13.9368 10.7934 13.8919C10.9741 13.847 11.1097 13.9368 11.1549 14.0939C11.313 14.6101 11.4486 15.1487 11.539 15.6649C11.7423 16.6973 11.9457 17.7072 12.149 18.7396C12.2168 18.8518 12.2394 18.964 12.2394 19.0762Z" fill="#99CF55"/>
<path d="M18.9725 15.822C18.9048 15.9342 18.837 16.024 18.7014 15.9791C18.4981 15.9342 18.3851 15.7547 18.2721 15.5976C17.4135 14.3408 16.6001 13.0616 15.6286 11.8721C15.5834 11.8048 15.5382 11.7374 15.5382 11.6701C15.5382 11.6028 15.5608 11.513 15.606 11.4681C15.6738 11.3559 15.8093 11.3335 15.9223 11.3784C16.0579 11.4457 16.1934 11.5355 16.3064 11.6477C17.3006 12.8147 18.0914 14.1164 18.9274 15.3732C18.9951 15.5078 19.0403 15.6649 18.9725 15.822Z" fill="#9BCF54"/>
<path d="M4.1507 14.0491C4.01513 14.8795 3.87957 15.7548 3.744 16.63C3.67622 17.0116 3.63103 17.3931 3.54065 17.7746C3.51806 17.8644 3.3599 17.9542 3.26952 17.9542C3.17914 17.9542 3.02098 17.8644 2.99839 17.7746C2.9532 17.5951 2.9306 17.3931 2.9532 17.2135C3.11136 16.1812 3.26952 15.1264 3.45028 14.094C3.47287 14.0267 3.47287 13.9369 3.49546 13.8696C3.58584 13.5778 3.83438 13.3758 3.96994 13.4656C4.17329 13.6003 4.1507 13.8022 4.1507 14.0491Z" fill="#9FD25E"/>
<path d="M19.0855 7.04712C19.2211 7.06956 19.3341 7.06956 19.4244 7.11445C20.396 7.67552 21.3675 8.25903 22.3391 8.84254C22.4295 8.88742 22.4973 8.99964 22.5424 9.11185C22.565 9.17918 22.5424 9.26895 22.5199 9.33628C22.4747 9.40361 22.4069 9.44849 22.3391 9.44849C22.2713 9.47093 22.1809 9.44849 22.1132 9.42605C21.0738 8.90987 20.0571 8.30391 19.1081 7.63063C19.0177 7.5633 18.9499 7.45109 18.9499 7.33888C18.9274 7.2491 19.0177 7.15933 19.0855 7.04712Z" fill="#9DD057"/>
<path d="M8.78245 3.88264C8.78245 3.94997 8.78245 4.03974 8.75986 4.10706C8.71467 4.19684 8.64689 4.30905 8.55651 4.35393C8.39835 4.42126 8.24019 4.30905 8.17241 4.17439C8.10462 4.06218 8.08203 3.88264 8.08203 3.74798C8.08203 3.546 8.24019 3.36646 8.44354 3.36646C8.66948 3.36646 8.75986 3.546 8.78245 3.74798C8.78245 3.81531 8.78245 3.83775 8.78245 3.88264Z" fill="#A77D80"/>
<path d="M6.77166 7.98969C6.74907 8.19167 6.68128 8.37121 6.45534 8.4161C6.25199 8.46098 6.07124 8.23655 6.09383 7.9448C6.11643 7.74281 6.18421 7.56327 6.41015 7.54083C6.6135 7.4735 6.79426 7.69793 6.77166 7.98969Z" fill="#A87C7F"/>
<path d="M14.7701 4.55582C14.7249 4.73536 14.5893 4.80269 14.4311 4.78025C14.16 4.73536 13.9567 4.4885 13.9793 4.24163C14.0018 4.08453 14.1148 3.94987 14.273 3.94987C14.5215 3.90498 14.7926 4.26407 14.7701 4.55582Z" fill="#AB7D81"/>
<path d="M7.29123 11.6253C7.29123 11.6926 7.29123 11.8721 7.15567 12.0292C7.11048 12.0741 7.0201 12.119 6.97491 12.119C6.90713 12.119 6.83934 12.0741 6.79416 12.0292C6.65859 11.8273 6.68119 11.6028 6.74897 11.3784C6.79416 11.2437 6.86194 11.0866 7.04269 11.1091C7.22345 11.1315 7.26864 11.2662 7.29123 11.4233C7.29123 11.4233 7.29123 11.4457 7.29123 11.6253Z" fill="#95666A"/>
<path d="M4.73813 10.0991C4.80591 10.144 4.91888 10.1889 4.96407 10.2787C5.07704 10.4582 5.03185 10.6377 4.89629 10.7948C4.8285 10.9071 4.71553 10.9295 4.60256 10.9295C4.46699 10.9295 4.39921 10.8173 4.37662 10.7051C4.30883 10.3909 4.467 10.0991 4.73813 10.0991Z" fill="#A77A7D"/>
<path d="M17.5717 5.00464C17.7525 5.02708 17.8881 5.04952 18.001 5.18418C18.114 5.31884 18.1592 5.45349 18.0236 5.58815C17.9558 5.65548 17.8203 5.72281 17.7299 5.70036C17.5943 5.67792 17.4588 5.58815 17.3458 5.47594C17.278 5.40861 17.2554 5.25151 17.3006 5.16174C17.3458 5.09441 17.4814 5.04952 17.5717 5.00464Z" fill="#A3797E"/>
<path d="M13.211 10.144C12.9851 10.1664 12.8495 10.0318 12.7591 9.85224C12.6236 9.60537 12.6913 9.31362 12.8947 9.26873C13.1206 9.22385 13.2562 9.38095 13.324 9.56049C13.3692 9.69515 13.3692 9.85224 13.3692 10.0093C13.3692 10.0542 13.2562 10.0991 13.211 10.144Z" fill="#9F6C70"/>
<path d="M11.3131 7.11438C11.2905 7.27148 11.2905 7.47346 11.042 7.49591C10.8386 7.51835 10.6353 7.29392 10.6579 7.04705C10.6804 6.82263 10.816 6.66553 11.0194 6.66553C11.2001 6.68797 11.3131 6.86751 11.3131 7.11438Z" fill="#AB7F82"/>
<path d="M10.1156 12.2089C10.1608 11.9621 10.4093 11.7601 10.5901 11.8498C10.7483 11.9172 10.7935 12.0518 10.7935 12.2089C10.7709 12.4334 10.6579 12.568 10.4545 12.5905C10.2964 12.6353 10.093 12.366 10.1156 12.2089Z" fill="#AD8185"/>
<path d="M8.08206 5.22925C8.14985 5.27413 8.21763 5.27413 8.26282 5.34146C8.42098 5.56589 8.35319 5.88009 8.10466 6.01474C8.03687 6.03719 7.9239 6.05963 7.87871 6.01474C7.72055 5.88009 7.67537 5.70055 7.74315 5.49856C7.78834 5.31902 7.90131 5.22925 8.08206 5.22925Z" fill="#9F7174"/>
<path d="M9.48293 9.65046C9.23439 9.67291 9.14402 9.53825 9.12142 9.31382C9.09883 9.15672 9.14402 8.99962 9.30218 8.93229C9.50553 8.84252 9.75406 9.06695 9.75406 9.31382C9.77666 9.49336 9.68628 9.62802 9.48293 9.65046Z" fill="#A4777A"/>
<path d="M17.6169 6.68783C17.6169 6.80004 17.5265 6.86737 17.4136 6.88982C17.1876 6.9347 16.9617 6.7776 16.9391 6.50829C16.9391 6.35119 16.9843 6.19409 17.1876 6.19409C17.4588 6.21653 17.6169 6.39608 17.6169 6.68783Z" fill="#9B6E73"/>
<path d="M10.7031 5.31893C10.6579 5.45359 10.6353 5.61069 10.4545 5.63313C10.2738 5.65557 10.1156 5.49847 10.1156 5.29649C10.1156 5.16183 10.1382 5.00473 10.3415 4.98229C10.4997 4.93741 10.6805 5.11695 10.7031 5.31893Z" fill="#96666A"/>
<path d="M14.0244 2.80542C14.2277 2.78297 14.4085 2.91763 14.4085 3.11962C14.4085 3.25427 14.3407 3.34404 14.2277 3.36648C14.047 3.43381 13.821 3.29916 13.7758 3.11962C13.7532 2.98496 13.8662 2.82786 14.0244 2.80542Z" fill="#9E7275"/>
</svg>
