<svg width="25" height="25" viewBox="0 0 25 25" fill="none" xmlns="http://www.w3.org/2000/svg">
<g id="Icon - Apple" clip-path="url(#clip0_32_5142)">
<g id="Group">
<g id="Group_2">
<path id="Vector" d="M19.0529 14.0746C18.3927 10.752 21.5464 8.80342 21.5464 8.80342C21.5464 8.80342 20.3177 7.02578 18.2527 6.56847C16.1887 6.11015 15.1557 6.68277 14.1247 7.11225C13.0927 7.54278 12.5778 7.54278 12.5778 7.54278C11.0885 7.54278 9.99989 5.96595 7.16247 6.68382C5.20769 7.17713 3.14987 9.43372 2.77807 12.127C2.40627 14.8213 3.2086 18.2591 4.75553 20.9236C6.30246 23.5901 7.87828 24.5922 8.99674 24.621C10.1152 24.6488 11.2317 23.8197 12.5778 23.6178C13.925 23.418 14.754 24.1061 16.0754 24.4779C17.3916 24.8486 17.8531 24.5046 19.3691 23.2152C20.8892 21.9257 22.2652 18.2272 22.2652 18.2272C22.2652 18.2272 19.7131 17.3991 19.0529 14.0746Z" fill="white"/>
<path id="Vector_2" d="M16.1301 4.41889C17.5925 2.92863 17.0972 0.621582 17.0972 0.621582C17.0972 0.621582 15.0435 0.982066 13.6675 2.41364C12.2926 3.84627 12.5202 6.10901 12.5202 6.10901C12.5202 6.10901 14.6676 5.90819 16.1301 4.41889Z" fill="white"/>
</g>
</g>
</g>
<defs>
<clipPath id="clip0_32_5142">
<rect width="24" height="24" fill="white" transform="translate(0.476562 0.621582)"/>
</clipPath>
</defs>
</svg>
