<svg width="25" height="25" viewBox="0 0 25 25" fill="none" xmlns="http://www.w3.org/2000/svg">
<g id="google-symbol 1" clip-path="url(#clip0_32_5148)">
<g id="Group">
<path id="Vector" d="M24.2836 10.5709C24.3903 10.5709 24.4768 10.6574 24.4768 10.7641V12.7922C24.4768 13.5513 24.4063 14.2935 24.2711 15.0135C23.2249 20.6062 18.2979 24.8326 12.3922 24.7919C5.76551 24.7463 0.462165 19.392 0.476837 12.7652C0.491415 6.15033 5.85851 0.792236 12.4768 0.792236C15.7193 0.792236 18.6612 2.07858 20.8212 4.16808C20.8992 4.2435 20.9012 4.36781 20.8245 4.4445L17.9552 7.31377C17.8813 7.38764 17.762 7.38956 17.6863 7.31752C16.3306 6.0271 14.4964 5.23486 12.4768 5.23486C8.30627 5.23486 4.94792 8.56936 4.9196 12.7398C4.89115 16.9376 8.28565 20.3496 12.4768 20.3496C15.8773 20.3496 18.7535 18.1031 19.7019 15.0135H12.67C12.5633 15.0135 12.4768 14.9271 12.4768 14.8204V10.764C12.4768 10.6574 12.5633 10.5709 12.67 10.5709H24.2836V10.5709Z" fill="white"/>
<g id="Group_2">
<path id="Vector_2" d="M24.2832 10.571H22.8345C22.9412 10.571 23.0277 10.6575 23.0277 10.7642V12.7924C23.0277 13.5515 22.9572 14.2937 22.8219 15.0137C21.8239 20.3491 17.2937 24.441 11.7512 24.7707C11.9633 24.7832 12.1768 24.7905 12.3917 24.792C18.2975 24.8328 23.2245 20.6062 24.2706 15.0137C24.4058 14.2937 24.4763 13.5515 24.4763 12.7924V10.7642C24.4763 10.6575 24.3898 10.571 24.2832 10.571Z" fill="white"/>
</g>
<path id="Vector_3" d="M5.6127 9.62733L1.96826 6.99408C4.01286 3.29606 7.95279 0.792236 12.4771 0.792236C15.7196 0.792236 18.6615 2.07858 20.8215 4.16808C20.8995 4.2435 20.9015 4.36781 20.8248 4.4445L17.9555 7.31377C17.8818 7.3875 17.7624 7.3898 17.6869 7.31789C16.3312 6.02724 14.4969 5.23491 12.4771 5.23491C9.43339 5.23491 6.80979 7.03416 5.6127 9.62733Z" fill="white"/>
<path id="Vector_4" d="M4.55981 8.86712L5.61192 9.62729C6.70458 7.26038 8.98589 5.55572 11.6901 5.27611C11.7105 5.27391 11.73 5.27124 11.7507 5.26927C11.5127 5.24668 11.2716 5.23486 11.0276 5.23486C8.27808 5.23486 5.88183 6.68438 4.55981 8.86712Z" fill="white"/>
<path id="Vector_5" d="M19.3724 4.16808C19.4504 4.2435 19.4524 4.36781 19.3757 4.44455L17.0468 6.77344C17.2699 6.94313 17.4835 7.12463 17.6861 7.31756C17.7618 7.38961 17.8812 7.38769 17.9551 7.31381L20.8243 4.44455C20.9011 4.36781 20.899 4.24355 20.8211 4.16808C18.6611 2.07858 15.7191 0.792236 12.4767 0.792236C12.2333 0.792236 11.9919 0.800346 11.7522 0.814643C14.7072 0.990658 17.3744 2.23533 19.3724 4.16808Z" fill="white"/>
<path id="Vector_6" d="M21.2788 20.9474C19.0874 23.3121 15.9543 24.7922 12.476 24.7922C7.77794 24.7922 3.7105 22.0923 1.74072 18.1591L5.46143 15.6094C6.57794 18.3875 9.2981 20.3495 12.476 20.3495C14.4704 20.3495 16.2842 19.5769 17.6343 18.3146L21.2788 20.9474Z" fill="white"/>
<path id="Vector_7" d="M5.4619 15.6094L4.36475 16.3612C5.63904 18.7351 8.14493 20.3495 11.0278 20.3495C11.2716 20.3495 11.5126 20.3375 11.7505 20.315C8.88879 20.0422 6.49231 18.1734 5.4619 15.6094Z" fill="white"/>
<path id="Vector_8" d="M12.4767 24.7922C15.955 24.7922 19.088 23.3121 21.2794 20.9473L20.3868 20.3025C18.3292 22.8633 15.2424 24.5621 11.7542 24.7703C11.9932 24.7846 12.2341 24.7922 12.4767 24.7922Z" fill="white"/>
<path id="Vector_9" d="M4.91923 12.7923C4.91923 13.788 5.11189 14.7389 5.462 15.6095L1.74125 18.1592C0.931953 16.5444 0.476562 14.7215 0.476562 12.7923C0.476562 10.6893 1.01741 8.71277 1.96775 6.99414L5.61219 9.62739C5.16744 10.5898 4.91923 11.6623 4.91923 12.7923Z" fill="white"/>
<path id="Vector_10" d="M4.36502 16.3613L5.46218 15.6095C5.11207 14.7389 4.91941 13.788 4.91941 12.7923C4.91941 11.6623 5.16762 10.5898 5.61237 9.62736L4.56026 8.86719C3.87705 9.99524 3.48054 11.3189 3.47088 12.7399C3.46198 14.0502 3.78668 15.284 4.36502 16.3613Z" fill="white"/>
</g>
</g>
<defs>
<clipPath id="clip0_32_5148">
<rect width="24" height="24" fill="white" transform="translate(0.476562 0.792236)"/>
</clipPath>
</defs>
</svg>
