<svg width="163" height="61" viewBox="0 0 163 61" fill="none" xmlns="http://www.w3.org/2000/svg">
<g id="Listly">
<path d="M0.42334 6.00003H10.1433V40.08H31.2033V48H0.42334V6.00003Z" fill="#439697"/>
<path d="M35.9743 15.72H45.3343V48H35.9743V15.72ZM40.6543 11.22C38.9343 11.22 37.5343 10.72 36.4543 9.72003C35.3743 8.72003 34.8343 7.48003 34.8343 6.00003C34.8343 4.52003 35.3743 3.28003 36.4543 2.28003C37.5343 1.28003 38.9343 0.780029 40.6543 0.780029C42.3743 0.780029 43.7743 1.26003 44.8543 2.22003C45.9343 3.18003 46.4743 4.38003 46.4743 5.82003C46.4743 7.38003 45.9343 8.68003 44.8543 9.72003C43.7743 10.72 42.3743 11.22 40.6543 11.22Z" fill="#439697"/>
<path d="M64.8811 48.48C62.2011 48.48 59.5812 48.16 57.0212 47.52C54.4612 46.84 52.4212 46 50.9012 45L54.0212 38.28C55.4612 39.2 57.2012 39.96 59.2412 40.56C61.2812 41.12 63.2812 41.4 65.2411 41.4C69.2011 41.4 71.1812 40.42 71.1812 38.46C71.1812 37.54 70.6412 36.88 69.5611 36.48C68.4811 36.08 66.8211 35.74 64.5811 35.46C61.9411 35.06 59.7612 34.6 58.0412 34.08C56.3212 33.56 54.8212 32.64 53.5412 31.32C52.3012 30 51.6812 28.12 51.6812 25.68C51.6812 23.64 52.2612 21.84 53.4212 20.28C54.6212 18.68 56.3412 17.44 58.5812 16.56C60.8612 15.68 63.5411 15.24 66.6211 15.24C68.9011 15.24 71.1611 15.5 73.4011 16.02C75.6811 16.5 77.5611 17.18 79.0412 18.06L75.9212 24.72C73.0812 23.12 69.9811 22.32 66.6211 22.32C64.6211 22.32 63.1212 22.6 62.1212 23.16C61.1212 23.72 60.6212 24.44 60.6212 25.32C60.6212 26.32 61.1612 27.02 62.2412 27.42C63.3212 27.82 65.0412 28.2 67.4012 28.56C70.0412 29 72.2011 29.48 73.8811 30C75.5611 30.48 77.0211 31.38 78.2611 32.7C79.5011 34.02 80.1211 35.86 80.1211 38.22C80.1211 40.22 79.5211 42 78.3212 43.56C77.1212 45.12 75.3612 46.34 73.0412 47.22C70.7612 48.06 68.0412 48.48 64.8811 48.48Z" fill="#439697"/>
<path d="M106.716 46.44C105.796 47.12 104.656 47.64 103.296 48C101.976 48.32 100.576 48.48 99.0962 48.48C95.2561 48.48 92.2762 47.5 90.1562 45.54C88.0761 43.58 87.0361 40.7 87.0361 36.9V23.64H82.0562V16.44H87.0361V8.58003H96.3961V16.44H104.436V23.64H96.3961V36.78C96.3961 38.14 96.7361 39.2 97.4161 39.96C98.1361 40.68 99.1362 41.04 100.416 41.04C101.896 41.04 103.156 40.64 104.196 39.84L106.716 46.44Z" fill="#439697"/>
<path d="M111.97 3.48003H121.33V48H111.97V3.48003Z" fill="#439697"/>
<path d="M162.057 15.72L147.477 49.98C145.997 53.7 144.157 56.32 141.957 57.84C139.797 59.36 137.177 60.12 134.097 60.12C132.417 60.12 130.757 59.86 129.117 59.34C127.477 58.82 126.137 58.1 125.097 57.18L128.517 50.52C129.237 51.16 130.057 51.66 130.977 52.02C131.937 52.38 132.877 52.56 133.797 52.56C135.077 52.56 136.117 52.24 136.917 51.6C137.717 51 138.437 49.98 139.077 48.54L139.197 48.24L125.217 15.72H134.877L143.937 37.62L153.057 15.72H162.057Z" fill="#439697"/>
</g>
</svg>
