<svg width="112" height="95" viewBox="0 0 112 95" fill="none" xmlns="http://www.w3.org/2000/svg">
<g id="Frame" clip-path="url(#clip0_11_459)">
<g id="Group">
<g id="Group_2">
<path id="Vector" d="M76.0072 4.17416C76.3914 4.12927 76.6625 4.33126 76.798 4.69034C76.9336 5.00454 77.0466 5.34118 77.1822 5.67782C77.4985 6.5082 77.9504 7.22637 78.7186 7.69766C79.0801 7.92209 79.3738 8.25873 79.6901 8.55049C80.029 8.86469 80.3454 9.20133 80.7521 9.47064C81.3621 9.87461 81.6784 10.4581 81.814 11.1987C82.1981 13.1512 82.6726 15.0589 83.1019 17.0114C83.6441 19.3903 84.1638 21.7917 84.6835 24.1931C84.9094 25.2479 85.0902 26.3476 85.3839 27.3799C85.5646 27.9859 85.3839 28.3225 84.9772 28.704C84.3446 29.2876 83.7119 29.8935 83.1245 30.4995C82.4692 31.1727 81.701 31.7338 81.1813 32.5417C81.0684 32.7213 80.8876 32.7886 80.6843 32.8335C76.6173 33.6414 72.6181 34.7187 68.5511 35.6164C67.8055 35.7735 67.4666 35.5491 67.3084 34.8085C66.5854 30.9483 65.8398 27.1106 65.1168 23.2505C64.6197 20.6471 64.1904 18.0438 63.6708 15.4628C63.603 15.1038 63.603 14.812 63.6933 14.4529C63.9871 13.2859 64.326 12.1189 64.7553 10.9967C65.0264 10.2337 65.1168 9.49308 64.8909 8.70759C64.7779 8.32606 64.7327 7.94453 64.6875 7.56301C64.6197 7.18148 64.7553 6.9795 65.162 6.91217C66.6306 6.68774 68.0315 6.17156 69.4775 5.81248C71.3754 5.31874 73.2281 4.71278 75.1487 4.33126C75.465 4.24149 75.7135 4.15172 76.0072 4.17416Z" fill="#E3F8FF"/>
<path id="Vector_2" d="M77.3855 12.478C76.5269 12.6126 75.6909 12.7248 74.8549 12.8819C72.9796 13.2186 71.1042 13.5777 69.2063 13.9143C68.167 14.1163 67.1276 14.2958 66.0883 14.4978C65.4783 14.61 64.8682 14.6998 64.2356 14.7896C64.1452 14.812 63.9644 14.7447 63.9418 14.6549C63.8741 14.4754 64.0096 14.3856 64.1678 14.3407C64.823 14.1836 65.4557 13.9816 66.1109 13.9143C67.6021 13.7796 69.0256 13.3757 70.4942 13.1737C72.0306 12.9493 73.567 12.6351 75.1034 12.3657C75.7587 12.2535 76.3913 12.0964 77.0465 11.9618C77.3629 11.8945 77.521 11.6925 77.521 11.3783C77.5436 10.1664 77.5662 8.95446 77.5662 7.74255C77.5662 7.40591 77.3855 7.24881 77.0465 7.24881C76.8884 7.24881 76.7302 7.24881 76.5721 7.29369C74.7871 7.67522 72.9796 8.07919 71.1946 8.46072C69.2967 8.86468 67.3762 9.24621 65.4557 9.62774C65.3653 9.65018 65.2297 9.56041 65.1845 9.47064C65.1167 9.35842 65.2297 9.24621 65.3201 9.20133C65.4557 9.134 65.5912 9.04423 65.7494 9.02178C68.0766 8.55049 70.4264 8.10163 72.7536 7.63034C74.1319 7.36102 75.5101 7.06927 76.8658 6.71018C77.2499 6.62041 77.4984 6.62041 77.8147 6.88973C78.4022 7.36102 78.9445 7.83232 79.4867 8.37094C79.8482 8.73003 80.2775 8.99934 80.6616 9.33598C81.5654 10.1664 81.7462 10.4132 81.9495 11.7374C82.1303 12.9268 82.4692 14.0938 82.7177 15.2609C83.3278 18.0662 84.0282 20.8491 84.6156 23.6769C84.8642 24.9337 85.1805 26.168 85.4742 27.4248C85.5872 27.8737 85.542 28.1654 85.2031 28.4796C84.3445 29.2876 83.5085 30.1179 82.6725 30.9259C82.198 31.3972 81.7462 31.8685 81.2717 32.3622C80.9328 32.6988 80.6842 32.654 80.5487 32.1602C80.3679 31.5318 80.2549 30.881 80.142 30.2301C80.029 29.6242 79.9612 28.9958 79.8708 28.3898C79.5997 26.6618 79.3286 24.9561 79.0122 23.228C78.7863 21.9263 78.5604 20.6247 78.2666 19.3454C77.9955 18.1335 77.9277 16.8767 77.6792 15.6648C77.4758 14.7447 77.4758 13.8021 77.4758 12.8819C77.4984 12.7473 77.4306 12.6351 77.3855 12.478Z" fill="#DCF5FF"/>
<path id="Vector_3" d="M68.8449 24.3052C68.9578 23.8339 69.0482 23.4299 69.1612 23.026C69.2064 22.8913 69.3419 22.7566 69.4775 22.7118C69.6808 22.622 69.839 22.7791 69.9746 22.9362C70.0198 23.0035 70.0649 23.0708 70.0875 23.1382C70.3813 24.1481 70.675 25.158 70.9687 26.1679C70.9913 26.2353 70.9687 26.325 70.9461 26.3924C70.9235 26.4597 70.8557 26.527 70.788 26.527C70.7202 26.5495 70.6298 26.527 70.5846 26.4821C70.2683 26.1006 70.2457 25.6293 70.1101 25.1805C69.9746 24.7989 69.952 24.3725 69.6808 23.991C69.5905 24.3725 69.5227 24.7092 69.4323 25.0458C69.3419 25.36 69.116 25.4498 68.7997 25.36C68.4608 25.2702 68.393 25.36 68.4382 25.6966C68.4833 26.0108 68.5737 26.3026 68.5963 26.6168C68.6189 26.7739 68.5737 26.931 68.5511 27.0656C68.5285 27.1105 68.4382 27.1554 68.3704 27.1779C68.3478 27.1779 68.28 27.1779 68.28 27.1554C68.1896 27.0208 68.0767 26.9086 68.0541 26.7739C67.8733 25.8537 67.6925 24.9336 67.5344 24.0134C67.5118 23.9012 67.5344 23.789 67.557 23.6768C67.5796 23.6095 67.6248 23.4973 67.67 23.4973C67.7829 23.4748 67.9185 23.4524 67.9863 23.5197C68.167 23.6544 68.3252 23.8563 68.4608 24.0134C68.5059 24.0808 68.5511 24.2379 68.8449 24.3052Z" fill="#74C6CC"/>
<path id="Vector_4" d="M75.4198 24.2829C75.2843 24.4849 75.4876 24.642 75.465 24.844C75.4424 24.9562 75.4424 25.0908 75.3295 25.1357C75.1487 25.203 75.0357 25.0908 74.968 24.9337C74.8776 24.7093 74.8098 24.4849 74.742 24.2829C74.5613 23.7218 74.3805 23.1832 74.1998 22.6221C74.1546 22.4426 74.1094 22.2406 74.1094 22.0611C74.1094 21.9488 74.1546 21.8142 74.3127 21.8142C74.3805 21.8142 74.4935 21.8366 74.5161 21.8815C74.629 22.0835 74.7194 22.3079 74.8324 22.5099C74.9454 22.7119 75.1261 22.6221 75.2165 22.4875C75.4198 22.1957 75.6006 21.8815 75.8039 21.6122C75.8943 21.5 76.0073 21.3429 76.1881 21.4551C76.414 21.5898 76.3462 21.7917 76.2558 21.9713C76.0977 22.2406 75.9169 22.4875 75.7588 22.7568C75.4198 23.3179 75.4424 23.3627 75.8943 23.8789C76.2106 24.238 76.527 24.5746 76.8433 24.9337C76.9111 25.0235 76.9111 25.1582 76.7981 25.2479C76.6851 25.3153 76.5722 25.3153 76.4818 25.2255C76.301 25.0684 76.1429 24.9113 75.9621 24.7542C75.7814 24.5522 75.6684 24.3278 75.4198 24.2829Z" fill="#71C3CB"/>
<path id="Vector_5" d="M72.5051 22.4875C72.7084 22.5324 72.8214 22.7119 72.844 22.8915C72.957 23.4301 73.0699 23.9463 73.1151 24.4849C73.1603 24.8889 73.2507 25.2255 73.6348 25.45C73.7252 25.5173 73.7704 25.6519 73.7026 25.7417C73.6348 25.8315 73.5218 25.8988 73.4314 25.8988C73.0247 25.9437 72.7762 25.809 72.7084 25.4948C72.5503 24.5971 72.3921 23.677 72.2565 22.7568C72.2113 22.5997 72.3695 22.4426 72.5051 22.4875Z" fill="#76C8CE"/>
<path id="Vector_6" d="M71.9402 24.9786C71.9177 25.248 71.8725 25.3377 71.7595 25.3826C71.6239 25.4275 71.511 25.3377 71.4884 25.2255C71.2624 24.4849 71.0365 23.7443 70.8331 23.0037C70.8105 22.9139 70.9009 22.7568 70.9687 22.7344C71.0365 22.6895 71.2398 22.7344 71.2624 22.8017C71.6917 23.5199 71.8499 24.3054 71.9402 24.9786Z" fill="#78C8CE"/>
</g>
<g id="Group_3">
<path id="Vector_7" d="M86.9881 89.1424C86.1521 89.1424 85.3387 89.12 84.5027 89.12C83.3504 89.0975 82.2659 88.7609 81.204 88.312C79.3738 87.549 78.7638 86.2249 79.0801 84.3397C79.5772 81.5792 80.7295 79.0656 82.5144 76.8663C84.4124 74.5547 86.7848 73.0061 89.609 72.0411C89.6542 72.0186 89.6768 72.0186 89.722 72.0186C92.0266 71.0087 94.4668 70.9863 96.907 71.2107C97.9463 71.3005 98.9857 71.5249 100.002 71.9064C102.126 72.6919 104.115 73.657 105.854 75.0933C106.577 75.6992 107.233 76.3725 107.73 77.1805C108.859 79.0432 109.131 81.8261 107.029 83.9806C105.628 85.4169 103.956 86.382 102.036 86.9655C99.8217 87.6388 97.5622 88.1101 95.2802 88.514C92.5689 88.9853 89.7898 89.1649 86.9881 89.1424Z" fill="#CE9968"/>
<path id="Vector_8" d="M83.0341 76.5071C84.0282 77.2477 85.045 77.9659 86.0165 78.7514C87.0559 79.6042 88.2082 80.255 89.3379 80.9732C91.5069 82.3422 93.8567 83.3297 96.2517 84.16C98.7823 85.0578 101.403 85.4617 104.115 85.3271C104.386 85.3046 104.657 85.2597 104.928 85.17C105.064 85.1251 105.244 85.0578 105.312 85.2597C105.38 85.4393 105.199 85.5515 105.086 85.6188C103.889 86.3145 102.623 86.8083 101.29 87.1674C99.4827 87.6611 97.6526 88.0875 95.7998 88.3793C94.3086 88.6261 92.8174 89.0077 91.281 88.9179C91.1228 88.9179 90.9647 88.8955 90.8065 88.9179C88.5019 89.3443 86.1747 89.075 83.8701 89.0077C82.5822 88.9852 81.3395 88.4242 80.255 87.6836C79.419 87.1225 79.1704 86.2023 79.0801 85.2373C79.0123 84.5865 79.2156 83.9805 79.3738 83.397C79.6675 82.2973 79.9612 81.1976 80.4583 80.1877C80.9554 79.1329 81.6784 78.1903 82.311 77.2028C82.424 76.9559 82.6726 76.7091 83.0341 76.5071Z" fill="#F2C2C4"/>
<path id="Vector_9" d="M103.572 79.7391C103.55 79.8962 103.482 80.0308 103.324 80.0981C103.166 80.1655 103.03 80.0981 102.917 79.9859C102.895 79.9635 102.872 79.9186 102.849 79.8962C102.691 79.6942 102.623 79.4922 102.759 79.2678C102.849 79.1331 102.985 79.0658 103.166 79.1331C103.437 79.2229 103.595 79.4473 103.572 79.7391Z" fill="#DA966C"/>
<path id="Vector_10" d="M106.193 82.0058C106.126 81.9609 106.035 81.9384 106.013 81.8936C105.9 81.5794 105.967 81.31 106.216 81.0632C106.329 80.951 106.442 81.0183 106.51 81.1081C106.758 81.3998 106.555 81.9384 106.193 82.0058Z" fill="#DB986E"/>
<path id="Vector_11" d="M104.838 79.6939C104.612 79.6939 104.521 79.5368 104.453 79.3573C104.386 79.1778 104.408 78.9758 104.589 78.8636C104.657 78.8187 104.838 78.8187 104.905 78.886C105.109 79.088 105.131 79.3349 105.018 79.6042C104.973 79.6266 104.883 79.6491 104.838 79.6939Z" fill="#DE9B72"/>
<path id="Vector_12" d="M103.346 82.3423C103.595 82.3423 103.821 82.4994 103.843 82.7238C103.866 82.9034 103.73 82.9931 103.55 82.9931C103.279 82.9931 103.053 82.836 103.03 82.634C103.03 82.5218 103.211 82.3423 103.346 82.3423Z" fill="#DB8F63"/>
<path id="Vector_13" d="M103.64 75.1156C103.459 75.0483 103.279 75.0034 103.075 74.981C102.239 74.8688 101.381 74.779 100.545 74.6892C100.477 74.3975 100.658 74.2853 100.793 74.1506C101.019 73.9262 101.245 73.7242 101.471 73.4998C101.561 73.41 101.561 73.2753 101.471 73.208C101.381 73.1407 101.245 73.1182 101.155 73.1407C101.019 73.1856 100.861 73.2753 100.748 73.3651C100.409 73.6344 100.115 73.9486 99.8895 74.3077C99.7313 74.5546 99.528 74.6892 99.2117 74.6892C97.9916 74.6443 96.7715 74.6443 95.5514 74.5995C95.4158 74.5995 95.3254 74.5321 95.3028 74.4199C95.3028 74.3526 95.3254 74.2628 95.3932 74.2179C96.0259 73.4998 96.7489 72.9163 97.5171 72.3776C97.743 72.2205 98.0142 72.1083 98.1497 71.8614C98.1723 71.8166 98.1723 71.7043 98.1271 71.6595C98.0819 71.6146 97.9916 71.5248 97.9464 71.5472C97.7204 71.637 97.5171 71.7268 97.3137 71.839C96.2744 72.5123 95.4158 73.3427 94.5798 74.2404C94.3087 74.5097 94.0376 74.6443 93.6535 74.6443C92.5011 74.6219 91.394 74.8239 90.2643 75.0483C89.6995 75.1605 89.112 75.2727 88.3438 75.4298C88.8409 74.3526 89.3831 73.5446 90.061 72.8265C90.2869 72.6021 90.5128 72.3776 90.7162 72.1532C90.8292 72.041 90.897 71.8839 90.7388 71.7492C90.5806 71.637 90.4451 71.7268 90.3095 71.8166C90.1739 71.9063 90.0836 72.0185 89.9706 72.1308C89.112 72.9387 88.389 73.8813 87.9371 74.981C87.7112 75.5421 87.3271 75.8562 86.7622 76.0133C86.4233 76.1031 86.107 76.2602 85.768 76.3949C85.6325 76.4622 85.4969 76.552 85.3839 76.6417C85.3388 76.6866 85.3162 76.7764 85.3388 76.8437C85.3613 76.9784 85.4517 77.0682 85.5873 77.0233C85.9262 76.9111 86.2425 76.7764 86.5814 76.6866C86.7396 76.6417 86.9204 76.4846 87.1915 76.7091C87.0559 77.3823 86.7622 78.0781 86.5814 78.7738C86.5363 78.9758 86.3103 79.0431 86.1296 79.1104C85.6099 79.29 85.0902 79.4471 84.5705 79.6266C84.3446 79.6939 84.1413 79.7837 83.9153 79.8735C83.7571 79.9408 83.6442 80.0755 83.712 80.2326C83.7346 80.2999 83.9153 80.3448 84.0283 80.3448C84.1413 80.3448 84.2542 80.2999 84.3672 80.2775C84.8191 80.1204 85.2484 79.9633 85.7003 79.8286C86.2651 79.6491 86.3103 79.7164 86.2651 80.255C86.2199 80.6365 86.2199 81.0405 86.2199 81.422C86.2199 81.5791 86.3329 81.7362 86.4911 81.7362C86.6718 81.7587 86.7622 81.624 86.7848 81.4445C86.8074 81.063 86.8526 80.659 86.8526 80.2775C86.8526 79.694 87.1237 79.3349 87.7112 79.2227C88.9764 78.9533 90.2417 78.6616 91.507 78.3698C91.62 78.3474 91.7555 78.3474 91.8459 78.3698C91.9589 78.3923 92.0719 78.4596 92.0493 78.6167C92.0267 78.7738 91.9815 78.9085 91.9363 79.0656C91.8459 79.5593 91.7555 80.053 91.6652 80.5692C91.6426 80.7263 91.7329 80.8834 91.9363 80.8834C92.117 80.9059 92.2074 80.7712 92.2526 80.5917C92.2978 80.255 92.2978 79.8735 92.3882 79.5593C92.5011 79.1104 92.5689 78.5943 92.9078 78.2801C93.2016 77.9883 93.6761 78.1678 94.0376 78.0556C94.1053 78.0332 94.1957 78.0107 94.2635 78.0107C95.4836 77.921 96.6811 77.6966 97.9012 77.6966C98.2175 77.6966 98.4434 77.7863 98.466 78.123C98.4886 78.2352 98.5338 78.3474 98.6694 78.3698C98.8276 78.3923 98.9179 78.3025 98.9179 78.1903C99.0083 77.6517 99.3472 77.517 99.8443 77.517C100.635 77.5394 101.426 77.517 102.194 77.4946C102.443 77.4946 102.623 77.315 102.556 77.1579C102.488 76.9784 102.352 76.9335 102.194 76.9111C101.991 76.9111 101.81 76.9559 101.607 76.9559C100.861 76.9559 100.115 76.9335 99.3698 76.9335C99.3246 76.6417 99.4602 76.3949 99.5732 76.148C99.9121 75.3176 99.9121 75.3176 100.771 75.3401C101.516 75.3625 102.262 75.4298 103.008 75.4523C103.211 75.4523 103.392 75.4523 103.595 75.4298C103.64 75.4298 103.708 75.3176 103.708 75.2727C103.731 75.2503 103.685 75.1381 103.64 75.1156ZM92.4334 77.6068C91.7103 77.9434 90.9195 77.921 90.1513 78.123C89.3605 78.3249 88.5697 78.5045 87.7563 78.7065C87.5982 78.7514 87.4626 78.8187 87.2819 78.6616C87.3045 77.9434 87.6434 77.2926 87.8693 76.5969C87.9823 76.2602 88.2534 76.1256 88.5697 76.0358C89.7672 75.6991 90.9873 75.4074 92.2526 75.3401C92.6819 75.3176 93.1112 75.2727 93.6083 75.2503C93.5857 75.4298 93.5857 75.5196 93.5405 75.5645C93.179 76.2602 92.8175 76.9335 92.4334 77.6068ZM99.1665 75.6543C99.0761 75.9236 98.9631 76.1704 98.8953 76.4173C98.7598 76.8886 98.4886 77.0906 97.969 77.1355C96.4777 77.2477 95.0091 77.4272 93.5405 77.5619C93.4727 77.5619 93.4049 77.4946 93.2919 77.4497C93.4953 76.7091 93.9472 76.0582 94.3991 75.4523C94.512 75.2952 94.6928 75.2054 94.8961 75.2054C96.2292 75.2279 97.5623 75.2503 98.8953 75.2727C99.0987 75.2503 99.2343 75.4523 99.1665 75.6543Z" fill="#FFB273"/>
</g>
<g id="Group_4">
<path id="Vector_14" d="M49.12 47.0399C49.0296 44.5263 49.9108 42.3269 51.1083 40.2622C51.7636 39.1176 52.7577 38.2199 53.8196 37.3671C55.695 35.8634 57.9092 35.2799 60.146 34.7413C60.3268 34.6964 60.5301 34.6964 60.7335 34.7188C61.9988 34.7637 63.2189 34.9657 64.3938 35.4595C65.0716 35.7512 65.772 36.0205 66.3595 36.4694C66.6984 36.7387 67.0147 37.0304 67.2181 37.412C67.557 38.0628 67.9185 38.7361 68.0541 39.4543C68.2574 40.3969 68.6867 41.1823 69.229 41.9678C69.6808 42.5962 69.9746 43.3368 70.3135 44.0326C70.3813 44.1672 70.3813 44.3243 70.4039 44.4814C70.5168 46.03 70.2683 47.4887 69.5227 48.8802C68.9804 49.9126 68.393 50.9449 67.9863 52.0446C67.8733 52.3364 67.7603 52.6281 67.6925 52.9199C67.4214 53.9074 66.9017 54.7826 66.3369 55.613C66.1335 55.9272 65.8172 56.1965 65.5009 56.4209C64.3034 57.2738 62.9703 57.8124 61.5243 58.0817C61.4791 58.0817 61.4565 58.1041 61.4113 58.1041C60.2816 57.9919 59.1293 57.9695 58.1351 57.386C57.1862 56.8249 56.3502 56.1292 55.6046 55.3213C55.3335 55.0295 55.1527 54.6704 54.9719 54.3338C54.6104 53.6829 54.0908 53.2565 53.3452 53.0994C52.3736 52.9199 51.515 52.4486 50.7016 51.8875C50.4757 51.7304 50.2497 51.5733 50.1142 51.3264C49.5945 50.2716 49.0974 49.2168 49.12 48.0049C49.12 47.7132 49.12 47.3541 49.12 47.0399Z" fill="white"/>
<path id="Vector_15" d="M61.5243 56.5556C62.1569 56.5556 62.654 56.3088 63.1736 56.1292C64.0774 55.8375 64.936 55.4784 65.6364 54.7827C65.9753 54.446 66.4272 54.2889 66.8791 54.1094C66.9243 54.0869 67.0373 54.1094 67.0825 54.1543C67.1276 54.1991 67.1728 54.3114 67.1502 54.3562C66.6984 54.9398 66.495 55.6804 65.885 56.1741C65.049 56.8474 64.1226 57.3636 63.1284 57.7227C62.6088 57.9022 62.0665 58.0144 61.5468 58.1491C61.3661 58.1939 61.1627 58.1939 60.9594 58.1715C59.3552 58.0144 57.8866 57.5207 56.6891 56.4434C56.0338 55.8375 55.356 55.2315 54.9719 54.4011C54.6556 53.7278 54.0907 53.3239 53.3451 53.1892C52.4187 53.0097 51.5828 52.5833 50.792 52.0222C50.4304 51.7529 50.1367 51.4836 49.956 51.0796C49.4589 50.0024 49.1878 48.9027 49.1426 47.7132C49.0522 45.8056 49.4815 44.0102 50.1819 42.2372C50.9501 40.2847 52.2154 38.7361 53.797 37.412C53.8874 37.3447 54.0229 37.3222 54.1133 37.412C54.2037 37.5018 54.1811 37.614 54.1359 37.7262C54.0003 38.0628 53.7744 38.3097 53.5259 38.579C52.6221 39.4992 52.0798 40.5764 51.8087 41.8332C51.5828 43.0227 51.3342 44.1897 51.3116 45.4016C51.289 46.3218 51.6505 46.995 52.351 47.4888C53.2547 48.1396 54.0229 48.9027 54.5878 49.8453C54.8363 50.2492 55.0397 50.6756 55.2204 51.102C55.469 51.708 55.7401 52.3364 55.8983 52.9648C56.1242 53.9523 56.8246 54.6031 57.5703 55.1642C58.7 56.0394 60.1234 56.3761 61.5243 56.5556Z" fill="#F4F3FF"/>
<path id="Vector_16" d="M56.7117 43.1797C56.6213 41.6761 57.6381 39.6562 60.0105 39.2747C61.5243 39.0278 62.8122 39.6562 63.6933 40.8906C64.7327 42.3493 64.8456 43.9203 63.9419 45.5138C62.9929 47.2194 60.2816 48.2967 58.1577 46.4115C57.2088 45.5811 56.6891 44.5263 56.7117 43.1797Z" fill="#FFD85A"/>
<path id="Vector_17" d="M56.7795 42.4839C57.2314 42.7757 57.5251 42.9552 57.8188 43.1572C58.2481 43.449 58.7 43.6734 59.1745 43.8529C60.5302 44.3467 61.7954 44.1671 62.9252 43.2694C63.2641 43.0001 63.6256 42.7532 63.9645 42.5064C64.1904 42.3493 64.439 42.4615 64.4842 42.7308C64.9135 45.1995 62.9252 47.6458 60.3946 47.3764C59.5586 47.2867 58.813 47.0174 58.1804 46.389C57.5477 45.783 57.0055 45.1322 56.8021 44.2569C56.6891 43.7183 56.7343 43.2021 56.7795 42.4839Z" fill="#FFCDDA"/>
</g>
<g id="Group_5">
<path id="Vector_18" d="M100.386 24.5746C98.24 24.5073 96.2517 24.036 94.4216 22.9588C92.6592 21.904 91.281 20.4901 90.4902 18.5824C89.5186 16.226 89.722 13.9144 90.8743 11.6925C91.6877 10.1215 92.8626 8.86475 94.3538 7.94459C98.1496 5.58811 102.149 5.20658 106.284 6.88979C107.956 7.56307 109.334 8.66276 110.396 10.1215C112.361 12.8147 112.497 16.3157 110.667 19.2782C109.515 21.1409 107.888 22.465 105.922 23.3852C104.205 24.1931 102.33 24.5746 100.386 24.5746Z" fill="#EF0000"/>
<path id="Vector_19" d="M100.228 24.5972C97.7429 24.485 95.4157 23.8117 93.45 22.2856C92.0944 21.2308 90.8743 19.974 90.332 18.2684C89.6542 16.0914 89.7446 13.9818 90.8065 11.9395C91.4165 10.7725 92.0944 9.7177 93.1111 8.86488C94.1053 8.0345 95.2124 7.36121 96.4099 6.86747C96.6132 6.7777 96.794 6.91236 96.8166 7.13679C96.8844 7.78763 96.8618 8.43846 96.9747 9.11175C97.517 11.962 98.6467 14.5653 100.409 16.832C102.104 19.0314 104.25 20.7146 107.007 21.5001C107.074 21.5226 107.165 21.545 107.233 21.5899C107.526 21.747 108.069 21.4552 108.114 21.949C108.136 22.3305 107.639 22.4203 107.346 22.5998C105.809 23.5649 104.16 24.2381 102.33 24.4177C101.629 24.485 100.929 24.6421 100.228 24.5972Z" fill="#FFCDDA"/>
<path id="Vector_20" d="M98.7371 5.43104C98.3304 4.01715 98.7823 2.85013 99.4375 1.77288C100.161 0.583412 101.245 -0.0225415 102.691 0.022344C102.985 0.022344 103.233 0.134558 103.482 0.246771C104.047 0.493641 104.34 0.89761 104.25 1.52601C104.227 1.63822 104.25 1.75043 104.227 1.88509C104.182 2.35639 104.115 2.40127 103.617 2.28906C102.217 1.97486 101.381 2.28906 100.567 3.41119C100.206 3.92738 99.912 4.466 99.7312 5.07195C99.7086 5.16173 99.7312 5.29638 99.7538 5.47592C100.319 5.36371 100.861 5.38615 101.403 5.38615C101.968 5.38615 102.51 5.52081 103.007 5.74524C103.346 5.90233 103.911 5.96966 103.821 6.41852C103.753 6.75516 103.211 6.57562 102.872 6.68783C102.397 6.84493 101.855 6.75516 101.471 7.15913C101.494 7.406 101.697 7.45088 101.855 7.54065C102.307 7.76508 102.736 8.05684 103.053 8.48325C103.12 8.57302 103.166 8.68523 103.098 8.79745C103.03 8.90966 102.917 8.9321 102.804 8.9321C102.171 8.90966 101.539 8.90966 100.929 8.84233C100.341 8.79745 99.8668 8.97699 99.4149 9.33607C98.8726 9.76248 98.4885 10.3011 98.1496 10.8622C98.0366 11.0642 97.9237 11.2661 97.7655 11.4681C97.6977 11.5579 97.5848 11.6028 97.4718 11.6252C97.3136 11.6477 97.2684 11.513 97.2458 11.4008C97.0877 10.7948 96.9973 10.1889 97.1555 9.53805C97.2007 9.31363 97.2232 9.0892 97.2458 8.84233C97.2458 8.70767 97.0877 8.64035 96.9973 8.68523C96.5906 8.90966 96.1839 9.15653 95.7772 9.4034C95.5739 9.51561 95.3931 9.67271 95.1898 9.78492C95.0542 9.85225 94.9186 9.96447 94.7831 9.80737C94.6701 9.67271 94.6927 9.51561 94.7605 9.35851C94.9638 8.79745 95.2801 8.30371 95.7094 7.87729C95.9354 7.65287 96.1613 7.45088 96.3873 7.22646C96.455 7.15913 96.5228 7.02447 96.5228 6.9347C96.5228 6.80004 96.3873 6.75516 96.2743 6.75516C95.958 6.73272 95.6416 6.71027 95.3253 6.68783C95.2124 6.68783 95.0542 6.66539 95.0994 6.50829C95.122 6.39607 95.1672 6.28386 95.2575 6.21653C96.1161 5.61058 97.0877 5.34127 98.1496 5.38615C98.2626 5.36371 98.4207 5.38615 98.7371 5.43104Z" fill="#A3E154"/>
<path id="Vector_21" d="M101.29 1.61572C101.584 1.63816 102.013 1.54839 102.443 1.70549C102.51 1.72793 102.578 1.79526 102.601 1.86259C102.646 1.99724 102.578 2.06457 102.443 2.08702C101.132 2.40121 100.454 3.36625 99.912 4.48839C99.8216 4.66793 99.7538 4.84747 99.686 5.02701C99.5957 5.22899 99.4601 5.34121 99.2341 5.31877C99.0308 5.31877 98.8726 5.22899 98.7597 5.04945C98.5789 4.78014 98.4885 4.46594 98.5563 4.17419C98.7145 3.41114 98.8952 2.67053 99.3245 1.99724C99.4827 1.75037 99.7086 1.61572 100.002 1.61572C100.364 1.61572 100.771 1.61572 101.29 1.61572Z" fill="#FFCED9"/>
<path id="Vector_22" d="M97.2684 11.0418C97.3814 9.53817 98.8952 7.76519 100.703 7.94474C100.884 7.96718 101.087 7.98962 101.268 8.07939C101.471 8.19161 101.697 8.37115 101.674 8.61802C101.652 8.93222 101.335 8.86489 101.109 8.88733C100.996 8.88733 100.884 8.88733 100.748 8.88733C99.8668 8.82 99.2341 9.24641 98.7597 9.91969C98.4433 10.3685 98.1948 10.8398 97.9011 11.3111C97.7881 11.4682 97.6525 11.6478 97.4266 11.5356C97.2684 11.4458 97.2684 11.2663 97.2684 11.0418Z" fill="#FFCEDB"/>
</g>
<g id="Group_6">
<path id="Vector_23" d="M41.935 23.0035C40.3534 22.9362 38.704 22.5771 37.0773 22.1282C36.5576 21.9711 36.0153 21.8589 35.5182 21.5896C35.1116 21.3652 35.0212 21.1856 35.2019 20.7368C35.4053 20.1982 35.6538 19.6595 35.9024 19.1209C37.2354 16.1136 38.7718 13.2185 40.5794 10.458C40.9183 9.94183 41.2572 9.40321 41.5961 8.88702C41.7769 8.59527 42.0706 8.46061 42.4095 8.57283C42.9292 8.72993 43.4714 8.84214 43.9685 9.06657C46.4765 10.1663 49.0522 11.1313 51.4924 12.4105C51.628 12.4779 51.7861 12.5452 51.9217 12.6125C52.3284 12.8369 52.8255 12.9492 53.0062 13.4653C53.187 14.0713 53.3903 14.6772 53.2096 15.3056C52.9159 16.338 52.5092 17.303 51.6732 18.0212C51.4246 18.2232 51.2439 18.4701 51.0857 18.7394C50.2045 20.3553 48.7811 21.3876 47.1091 22.0833C45.5049 22.7566 43.8104 23.0035 41.935 23.0035Z" fill="#FF5D6C"/>
<path id="Vector_24" d="M53.3 14.5651C53.3 14.812 53.3226 14.9018 53.3 14.9691C52.9611 16.181 52.5092 17.3256 51.515 18.1784C51.2213 18.4253 51.0631 18.4477 50.792 18.2008C50.4305 17.8418 50.069 17.4827 49.7075 17.1236C48.6681 16.0688 47.6288 15.014 46.5895 13.9367C46.2731 13.6001 45.9116 13.2859 45.6857 12.8595C45.5049 12.5228 45.1886 12.276 44.8723 12.0291C43.833 11.2661 42.8614 10.4357 41.9802 9.47063C41.9124 9.38086 41.8221 9.29109 41.7543 9.20132C41.6413 9.06666 41.5961 8.93201 41.6865 8.77491C41.7769 8.59537 41.9576 8.48315 42.161 8.48315C42.274 8.48315 42.3869 8.52804 42.4999 8.55048C43.5618 8.75247 44.4882 9.26865 45.4598 9.65018C47.6062 10.503 49.6849 11.4905 51.7636 12.478C51.8765 12.5228 51.9669 12.5902 52.0799 12.6351C53.0514 13.039 53.2322 13.847 53.3 14.5651Z" fill="#FFCDDA"/>
<path id="Vector_25" d="M43.1325 27.9186C40.3534 27.986 37.7777 27.2903 35.4505 25.7641C35.0212 25.4948 34.5693 25.248 34.14 24.9562C33.7107 24.6869 33.6655 24.5522 33.8237 24.0809C34.0496 23.3403 34.3208 22.5997 34.5919 21.8591C34.6823 21.6122 34.7952 21.298 34.976 21.1634C35.2697 20.9614 35.4053 21.3878 35.6538 21.4551C36.6932 21.7693 37.7099 22.1958 38.817 22.308C39.9919 22.4426 41.1668 22.5324 42.3417 22.5324C44.1493 22.5324 45.8439 22.1284 47.4255 21.2307C48.3518 20.7145 49.2556 20.1535 50.0012 19.4129C50.2046 19.2109 50.4079 19.0313 50.5435 18.8069C50.8598 18.2458 51.3343 17.8643 51.7184 17.3706C52.6447 16.2484 53.4356 15.0141 52.8933 13.4207C52.8707 13.3533 52.8707 13.2636 52.9159 13.1962C52.9837 13.084 53.1192 13.1065 53.2096 13.1738C54.0004 13.69 54.7686 14.2061 55.5368 14.7448C55.8983 14.9916 56.1695 15.3507 56.2372 15.7996C56.3502 16.4953 56.4858 17.191 56.4406 17.8868C56.305 20.1984 55.3335 22.1509 53.7519 23.8565C51.9895 25.7866 49.7301 26.819 47.2673 27.4698C46.5443 27.6493 45.7987 27.8064 45.0757 27.8738C44.4656 28.0084 43.8104 27.9411 43.1325 27.9186Z" fill="#A3E154"/>
<path id="Vector_26" d="M51.4247 17.8642C51.9669 17.3704 52.2155 16.7645 52.5544 16.181C53.0515 15.3281 53.2548 14.4529 52.9611 13.4878C52.9385 13.3981 52.9611 13.2185 53.0289 13.1961C53.0967 13.1512 53.2548 13.1961 53.3452 13.241C54.0004 13.6674 54.6557 14.0938 55.2883 14.5426C55.9661 15.0139 56.418 15.6199 56.3502 16.4952C56.3502 16.54 56.3502 16.5849 56.3502 16.6074C56.4858 17.3031 56.4632 17.9539 56.3502 18.6721C56.2599 19.2107 56.1921 19.7494 56.0339 20.2655C55.8532 20.849 55.5143 21.3877 55.2205 21.9487C55.0624 22.2181 54.7686 22.2181 54.5201 21.9936C54.3393 21.8365 54.2038 21.657 54.0456 21.4774C53.9778 21.3877 53.9326 21.2755 53.8649 21.1632C53.0967 20.0636 52.464 18.8516 51.4247 17.8642Z" fill="#FFCDDA"/>
<path id="Vector_27" d="M50.5209 19.0986C50.1143 20.2657 49.4816 21.2307 48.3971 21.9264C47.0866 22.7792 45.6632 23.2281 44.1494 23.5423C42.5 23.9014 40.8506 23.7218 39.2238 23.6545C38.0489 23.6096 36.9418 23.1608 35.8798 22.6446C35.4279 22.4202 35.0664 22.0386 34.8405 21.5673C34.7953 21.4776 34.8405 21.3429 34.8857 21.2531C34.9535 21.1185 35.089 21.1409 35.202 21.2082C36.4221 21.8591 37.7326 22.1733 39.1108 22.3528C40.1953 22.4875 41.2799 22.5773 42.387 22.5773C44.3527 22.5773 46.1828 22.0611 47.8548 21.0511C48.8038 20.4676 49.685 19.8168 50.5209 19.0986Z" fill="#FFCDDA"/>
<path id="Vector_28" d="M55.3109 22.1508C55.2657 22.2182 55.2431 22.2855 55.1753 22.3304C55.1075 22.3753 55.0171 22.3753 54.9494 22.3528C54.8138 22.2855 54.6782 22.1957 54.5653 22.1059C53.4355 20.9165 52.3058 19.727 51.1761 18.5375C50.905 18.2682 50.8598 17.9316 51.0631 17.8418C51.3343 17.7296 51.4924 17.9316 51.6506 18.0887C52.8029 19.3006 53.9778 20.5125 55.1301 21.7469C55.2431 21.8591 55.3335 21.9937 55.3109 22.1508Z" fill="#9CCF55"/>
<path id="Vector_29" d="M49.956 26.4821C49.8882 26.5943 49.8656 26.6841 49.7978 26.7065C49.7074 26.729 49.5719 26.7514 49.4815 26.7065C49.3911 26.6616 49.3233 26.5494 49.2555 26.4372C48.5325 25.0233 47.7869 23.6094 47.0639 22.1731C47.0187 22.0609 46.9509 21.9487 46.9509 21.8364C46.9509 21.7242 46.9961 21.5896 47.0865 21.5447C47.2221 21.4549 47.4028 21.4774 47.4932 21.6345C47.7191 22.0384 47.9451 22.4424 48.171 22.8688C48.7133 23.9012 49.233 24.9335 49.7752 25.9884C49.8656 26.1455 49.9108 26.325 49.956 26.4821Z" fill="#9CCF56"/>
<path id="Vector_30" d="M40.4664 24.44C40.4664 23.7892 40.4664 23.3628 40.489 22.9364C40.489 22.7793 40.5568 22.6446 40.6472 22.5099C40.6924 22.4202 40.8279 22.3528 40.9409 22.4202C41.0087 22.4426 41.0991 22.5099 41.0991 22.5548C41.1443 22.7344 41.1669 22.9364 41.1669 23.1383C41.1895 24.4625 41.1217 25.7866 41.3024 27.1107C41.3702 27.6942 41.1895 28.0084 40.9409 27.9411C40.5342 27.8289 40.6246 27.4473 40.6246 27.1556C40.602 26.1681 40.3535 25.2031 40.4664 24.44Z" fill="#A1D361"/>
<path id="Vector_31" d="M45.9794 27.5593C45.9342 27.7389 45.9116 27.896 45.7309 27.9409C45.5501 27.9858 45.4145 27.896 45.3693 27.7389C45.2112 27.1105 45.0304 26.4597 44.8949 25.8088C44.6915 24.7765 44.4882 23.7665 44.3074 22.7342C44.2848 22.5771 44.3526 22.42 44.5334 22.3751C44.7141 22.3302 44.8497 22.42 44.8949 22.5771C45.053 23.0932 45.1886 23.6319 45.279 24.1481C45.4823 25.1804 45.6857 26.1903 45.889 27.2227C45.9568 27.3349 45.9794 27.4471 45.9794 27.5593Z" fill="#99CF55"/>
<path id="Vector_32" d="M52.7125 24.3052C52.6447 24.4174 52.577 24.5072 52.4414 24.4623C52.2381 24.4174 52.1251 24.2378 52.0121 24.0807C51.1535 22.824 50.3401 21.5447 49.3686 20.3553C49.3234 20.2879 49.2782 20.2206 49.2782 20.1533C49.2782 20.0859 49.3008 19.9962 49.346 19.9513C49.4138 19.8391 49.5493 19.8166 49.6623 19.8615C49.7979 19.9288 49.9334 20.0186 50.0464 20.1308C51.0406 21.2979 51.8314 22.5995 52.6673 23.8563C52.7351 23.991 52.7803 24.1481 52.7125 24.3052Z" fill="#9BCF54"/>
<path id="Vector_33" d="M37.8907 22.5323C37.7551 23.3627 37.6196 24.2379 37.484 25.1132C37.4162 25.4947 37.371 25.8762 37.2806 26.2578C37.258 26.3475 37.0999 26.4373 37.0095 26.4373C36.9191 26.4373 36.761 26.3475 36.7384 26.2578C36.6932 26.0782 36.6706 25.8762 36.6932 25.6967C36.8513 24.6643 37.0095 23.6095 37.1903 22.5772C37.2129 22.5098 37.2129 22.4201 37.2355 22.3527C37.3258 22.061 37.5744 21.859 37.7099 21.9488C37.9133 22.0834 37.8907 22.2854 37.8907 22.5323Z" fill="#9FD25E"/>
<path id="Vector_34" d="M52.8255 15.5303C52.9611 15.5527 53.074 15.5527 53.1644 15.5976C54.136 16.1587 55.1075 16.7422 56.0791 17.3257C56.1695 17.3706 56.2372 17.4828 56.2824 17.595C56.305 17.6623 56.2824 17.7521 56.2598 17.8194C56.2147 17.8868 56.1469 17.9316 56.0791 17.9316C56.0113 17.9541 55.9209 17.9316 55.8531 17.9092C54.8138 17.393 53.7971 16.7871 52.8481 16.1138C52.7577 16.0465 52.6899 15.9342 52.6899 15.822C52.6673 15.7323 52.7577 15.6425 52.8255 15.5303Z" fill="#9DD057"/>
<path id="Vector_35" d="M42.5224 12.3658C42.5224 12.4331 42.5224 12.5229 42.4999 12.5902C42.4547 12.68 42.3869 12.7922 42.2965 12.8371C42.1383 12.9044 41.9802 12.7922 41.9124 12.6575C41.8446 12.5453 41.822 12.3658 41.822 12.2311C41.822 12.0292 41.9802 11.8496 42.1835 11.8496C42.4095 11.8496 42.4998 12.0292 42.5224 12.2311C42.5224 12.2985 42.5224 12.3209 42.5224 12.3658Z" fill="#A77D80"/>
<path id="Vector_36" d="M40.5117 16.4728C40.4891 16.6748 40.4213 16.8544 40.1953 16.8993C39.992 16.9441 39.8112 16.7197 39.8338 16.428C39.8564 16.226 39.9242 16.0464 40.1501 16.024C40.3535 15.9567 40.5342 16.1811 40.5117 16.4728Z" fill="#A87C7F"/>
<path id="Vector_37" d="M48.51 13.039C48.4649 13.2185 48.3293 13.2858 48.1711 13.2634C47.9 13.2185 47.6966 12.9716 47.7192 12.7248C47.7418 12.5677 47.8548 12.433 48.013 12.433C48.2615 12.3881 48.5326 12.7472 48.51 13.039Z" fill="#AB7D81"/>
<path id="Vector_38" d="M41.0312 20.1084C41.0312 20.1758 41.0312 20.3553 40.8957 20.5124C40.8505 20.5573 40.7601 20.6022 40.7149 20.6022C40.6471 20.6022 40.5793 20.5573 40.5341 20.5124C40.3986 20.3104 40.4212 20.086 40.489 19.8616C40.5341 19.7269 40.6019 19.5698 40.7827 19.5922C40.9634 19.6147 41.0086 19.7493 41.0312 19.9064C41.0312 19.9064 41.0312 19.9289 41.0312 20.1084Z" fill="#95666A"/>
<path id="Vector_39" d="M38.4781 18.5823C38.5459 18.6272 38.6589 18.672 38.7041 18.7618C38.817 18.9414 38.7718 19.1209 38.6363 19.278C38.5685 19.3902 38.4555 19.4127 38.3426 19.4127C38.207 19.4127 38.1392 19.3004 38.1166 19.1882C38.0488 18.874 38.207 18.5823 38.4781 18.5823Z" fill="#A77A7D"/>
<path id="Vector_40" d="M51.3117 13.4878C51.4925 13.5102 51.6281 13.5327 51.741 13.6673C51.854 13.802 51.8992 13.9366 51.7636 14.0713C51.6958 14.1386 51.5603 14.206 51.4699 14.1835C51.3343 14.1611 51.1988 14.0713 51.0858 13.9591C51.018 13.8918 50.9954 13.7347 51.0406 13.6449C51.0858 13.5776 51.2214 13.5327 51.3117 13.4878Z" fill="#A3797E"/>
<path id="Vector_41" d="M46.951 18.6272C46.7251 18.6496 46.5895 18.5149 46.4991 18.3354C46.3636 18.0885 46.4313 17.7968 46.6347 17.7519C46.8606 17.707 46.9962 17.8641 47.064 18.0436C47.1092 18.1783 47.1092 18.3354 47.1092 18.4925C47.1092 18.5374 46.9962 18.5823 46.951 18.6272Z" fill="#9F6C70"/>
<path id="Vector_42" d="M45.0531 15.5975C45.0305 15.7546 45.0305 15.9566 44.7819 15.9791C44.5786 16.0015 44.3752 15.7771 44.3978 15.5302C44.4204 15.3058 44.556 15.1487 44.7594 15.1487C44.9401 15.1711 45.0531 15.3507 45.0531 15.5975Z" fill="#AB7F82"/>
<path id="Vector_43" d="M43.8556 20.6921C43.9008 20.4452 44.1493 20.2432 44.3301 20.333C44.4883 20.4003 44.5334 20.535 44.5334 20.6921C44.5108 20.9165 44.3979 21.0512 44.1945 21.0736C44.0364 21.1185 43.833 20.8492 43.8556 20.6921Z" fill="#AD8185"/>
<path id="Vector_44" d="M41.8221 13.7124C41.8898 13.7573 41.9576 13.7573 42.0028 13.8246C42.161 14.049 42.0932 14.3632 41.8446 14.4979C41.7769 14.5203 41.6639 14.5428 41.6187 14.4979C41.4605 14.3632 41.4154 14.1837 41.4831 13.9817C41.5283 13.8022 41.6413 13.7124 41.8221 13.7124Z" fill="#9F7174"/>
<path id="Vector_45" d="M43.2229 18.1336C42.9744 18.1561 42.884 18.0214 42.8614 17.797C42.8388 17.6399 42.884 17.4828 43.0422 17.4154C43.2455 17.3257 43.4941 17.5501 43.4941 17.797C43.5166 17.9765 43.4263 18.1112 43.2229 18.1336Z" fill="#A4777A"/>
<path id="Vector_46" d="M51.3569 15.171C51.3569 15.2832 51.2665 15.3505 51.1536 15.373C50.9276 15.4179 50.7017 15.2608 50.6791 14.9914C50.6791 14.8343 50.7243 14.6772 50.9276 14.6772C51.1987 14.6997 51.3569 14.8792 51.3569 15.171Z" fill="#9B6E73"/>
<path id="Vector_47" d="M44.443 13.8021C44.3979 13.9367 44.3753 14.0938 44.1945 14.1163C44.0138 14.1387 43.8556 13.9816 43.8556 13.7796C43.8556 13.645 43.8782 13.4879 44.0815 13.4654C44.2397 13.4206 44.4204 13.6001 44.443 13.8021Z" fill="#96666A"/>
<path id="Vector_48" d="M47.7644 11.2886C47.9677 11.2661 48.1485 11.4008 48.1485 11.6028C48.1485 11.7374 48.0807 11.8272 47.9677 11.8496C47.787 11.917 47.561 11.7823 47.5158 11.6028C47.4932 11.4681 47.6062 11.311 47.7644 11.2886Z" fill="#9E7275"/>
</g>
<g id="Group_7">
<path id="Vector_49" d="M84.9546 67.2382C83.3278 67.2606 81.6333 66.9689 79.9839 66.4303C78.5152 65.9814 77.2726 65.2408 76.2784 64.0513C75.4876 63.1087 74.855 62.0988 74.4031 60.9542C73.9738 59.8321 74.019 58.7324 74.6516 57.6776C75.6232 56.0393 76.7303 54.5581 78.5152 53.6828C79.4416 53.234 80.255 52.628 80.978 51.8874C81.6558 51.1917 82.0851 50.3837 82.2659 49.4411C82.3789 48.7903 82.5144 48.1395 82.5596 47.4662C82.6952 45.8727 83.2149 44.414 83.9605 43.0225C84.2542 42.4615 84.6157 41.9453 85.0676 41.5189C86.6492 39.9479 88.4567 38.736 90.7162 38.3095C91.9589 38.0627 93.2015 37.928 94.4668 37.9729C98.1497 38.0851 100.567 40.4192 101.607 43.3592C102.149 44.9526 102.443 46.6134 102.42 48.319C102.375 50.294 101.878 52.1791 101.268 54.0419C100.612 56.0169 99.6861 57.8796 98.6016 59.6526C96.8844 62.4803 94.4894 64.5675 91.5296 66.0263C89.6316 66.924 87.6659 67.2831 84.9546 67.2382Z" fill="#995142"/>
<path id="Vector_50" d="M86.5813 45.2444C86.5813 45.3566 86.6039 45.4912 86.5813 45.6034C86.265 46.5012 86.4232 47.4662 86.3102 48.3863C86.1972 49.4187 85.6775 50.3164 85.1127 51.1468C84.0282 52.7402 82.4917 53.795 80.7746 54.6479C80.2549 54.9172 79.7126 55.164 79.1704 55.4109C78.4474 55.7251 77.8147 56.1515 77.2047 56.6901C76.6624 57.1839 76.0298 57.6103 75.5101 58.1265C75.3745 58.2611 75.2164 58.3734 75.013 58.3958C74.8549 58.4182 74.6967 58.4182 74.5611 58.306C74.4256 58.1714 74.4708 58.0143 74.5611 57.8796C75.3745 56.4433 76.2105 55.0518 77.7018 54.1766C78.4022 53.7501 79.1252 53.3462 79.803 52.8973C81.1587 51.9996 82.0625 50.7877 82.3336 49.127C82.424 48.521 82.5143 47.8926 82.5821 47.2866C82.8081 45.2892 83.4859 43.4265 84.7512 41.8106C84.8642 41.6535 85.0223 41.5413 85.1805 41.4067C85.4064 41.2047 85.6324 41.2496 85.7453 41.5413C86.0391 42.2595 86.378 42.9776 86.378 43.7631C86.378 44.2793 86.6717 44.7282 86.5813 45.2444Z" fill="#FFCDDA"/>
<path id="Vector_51" d="M97.5622 53.7052C97.3589 53.2115 97.1329 52.6953 96.8844 52.224C96.7262 51.9098 96.7037 51.6629 96.8844 51.3488C97.0878 51.0121 97.2459 50.653 97.4041 50.2939C97.4267 50.2266 97.3815 50.0246 97.3137 50.0022C97.2459 49.9573 97.0652 50.0022 96.9974 50.0695C96.7037 50.3164 96.6811 50.7877 96.297 51.0346C96.071 50.6755 95.8225 50.3164 95.5965 49.9573C95.2802 49.4187 94.9639 48.8801 94.6476 48.3414C94.8057 47.6681 95.3254 47.2193 95.6643 46.6582C95.958 46.142 96.2744 45.6707 96.5907 45.1546C96.6811 45.0199 96.7037 44.8404 96.5681 44.7282C96.4099 44.6159 96.2744 44.7057 96.184 44.8404C95.9806 45.1321 95.7999 45.4239 95.6191 45.7156C95.1898 46.3665 94.8057 47.0397 94.2861 47.6457C94.1505 47.5335 94.0375 47.4662 93.9923 47.3764C93.7438 46.9949 93.3597 46.6133 93.2693 46.1869C93.1789 45.7156 93.7438 45.4239 93.9697 45.0423C94.0375 44.9526 94.1053 44.8628 94.1731 44.7506C94.6024 44.1446 95.0317 43.5387 95.461 42.9327C95.5739 42.7532 95.6417 42.5737 95.4158 42.439C95.235 42.3268 95.1221 42.4839 95.0317 42.5961C94.7605 42.9776 94.512 43.3816 94.2183 43.7407C93.8342 44.2793 93.4275 44.7955 93.0208 45.3341C92.8626 45.5361 92.7045 45.5361 92.5463 45.3341C92.3655 45.1321 92.2074 44.9077 92.0266 44.6833C91.7555 44.3466 91.4618 44.0324 91.168 43.7182C91.0551 43.606 90.8969 43.5611 90.7614 43.6958C90.671 43.7856 90.6936 43.9202 90.7614 44.01C90.8517 44.1446 90.9421 44.2569 91.0551 44.3691C92.7497 46.546 92.7271 45.6707 90.9195 47.915C90.8743 47.9823 90.7839 48.0048 90.7388 48.0497C90.4224 48.0048 90.3321 47.713 90.1287 47.5335C89.9705 47.3988 89.835 47.2642 89.6768 47.1744C89.5187 47.0846 89.3605 47.1295 89.2701 47.2642C89.2249 47.3315 89.2701 47.511 89.3379 47.5784C89.5639 47.8477 89.835 48.0721 90.0835 48.319C90.2643 48.521 90.2643 48.723 90.0835 48.9474C89.6542 49.4411 89.2023 49.9573 88.7731 50.451C88.6149 50.6306 88.4341 50.6306 88.276 50.4735C87.8693 50.0471 87.4852 49.5982 87.0785 49.1942C86.9203 49.0371 86.7847 48.8127 86.491 48.9025C86.3103 48.9474 86.4007 49.284 86.6718 49.5982C87.1463 50.1144 87.6659 50.5857 88.0726 51.2365C87.5756 51.7752 87.1011 52.2913 86.6492 52.8075C86.3555 53.1442 86.2651 53.5706 86.4684 53.6155C86.8299 53.6828 86.8977 53.3461 87.0785 53.1666C88.7956 51.3487 88.2308 51.3487 89.7446 53.391C89.8802 53.5706 89.8802 53.7501 89.7446 53.9297C89.2701 54.4683 88.7956 54.9845 88.3212 55.5007C88.163 55.6802 88.0048 55.8373 87.8693 56.0393C87.8467 56.0842 87.8693 56.1964 87.9145 56.2188C87.9597 56.2637 88.0726 56.3086 88.1178 56.2861C88.2986 56.1964 88.4793 56.1066 88.6149 55.9719C89.1572 55.4333 89.6994 54.8723 90.2643 54.2663C90.671 54.6703 90.8969 55.1191 91.1455 55.568C92.23 57.4981 92.3881 56.8472 90.8065 58.5304C90.6484 58.6875 90.5128 58.8895 90.3772 59.069C90.3547 59.0915 90.4224 59.2037 90.4676 59.2486C90.4902 59.271 90.5354 59.2935 90.5806 59.2935C90.7614 59.3384 90.8969 59.2486 90.9873 59.1364C91.4392 58.6875 91.8685 58.2611 92.2978 57.8123C92.5689 57.9245 92.6367 58.1489 92.7497 58.3509C93.0886 58.9568 93.4275 59.5852 93.7664 60.2136C93.8568 60.3707 93.9697 60.5503 94.0827 60.6849C94.1731 60.7971 94.3087 60.7522 94.399 60.6849C94.4442 60.64 94.4894 60.5503 94.4894 60.4829C94.4216 60.2585 94.3313 60.0565 94.2183 59.8321C93.8116 59.069 93.4049 58.3284 92.9756 57.5654C92.8852 57.3858 92.8174 57.1839 92.953 57.0268C93.4501 56.4208 93.9471 55.8148 94.4442 55.2089C94.512 55.1191 94.6702 55.1191 94.7379 55.2313C94.8735 55.4333 94.9865 55.6353 95.0995 55.8373C95.2576 56.1066 95.3706 56.3984 95.5513 56.6677C95.5965 56.735 95.7547 56.8023 95.8451 56.7799C96.0258 56.735 96.0484 56.5555 95.9806 56.3984C95.8677 56.1066 95.7321 55.8373 95.5965 55.5455C95.461 55.2762 95.3028 54.9845 95.1672 54.7152C95.0995 54.5805 95.0543 54.4234 95.1221 54.2663C95.235 53.9745 96.1162 52.8524 96.4551 52.5607C96.8392 52.9197 96.8844 53.4808 97.2007 53.8623C97.2685 53.9297 97.4041 53.9745 97.5171 53.9521C97.5396 53.9745 97.6074 53.8399 97.5622 53.7052ZM92.5011 46.8378C92.6367 46.6807 92.7722 46.748 92.9078 46.8602C92.9304 46.8827 92.953 46.9275 92.9756 46.95C93.9246 48.1619 93.9246 48.1619 93.0208 49.4411C92.8626 49.6655 92.7045 49.89 92.5463 50.1144C92.5011 50.1817 92.4333 50.2042 92.2752 50.3388C91.8459 49.7553 91.4618 49.2167 91.0325 48.6556C91.4844 48.0048 92.004 47.4213 92.5011 46.8378ZM89.835 52.628C89.4961 52.1567 89.1572 51.6854 88.7956 51.1692C89.3379 50.5633 89.835 49.9797 90.3547 49.3962C90.4224 49.3065 90.558 49.284 90.6484 49.2391C92.343 51.3039 92.1622 50.6081 90.8291 52.4484C90.7839 52.5158 90.7388 52.5831 90.6936 52.628C90.2643 53.1217 90.2191 53.1442 89.835 52.628ZM94.0149 54.6478C93.5405 55.2987 93.0434 55.9495 92.4785 56.5555C92.343 56.4432 92.23 56.3984 92.1622 56.3086C91.7103 55.5904 91.2584 54.8498 90.8291 54.1092C90.6936 53.9072 90.5806 53.6828 90.7614 53.4584C91.2584 52.83 91.6877 52.1342 92.3204 51.5507C93.0208 52.3587 93.4953 53.2564 94.0375 54.1092C94.1731 54.2887 94.1505 54.4907 94.0149 54.6478ZM95.8451 52.022C95.461 52.6055 95.1446 53.2115 94.5798 53.795C94.1053 53.0768 93.6534 52.4036 93.2015 51.7303C92.6593 50.8775 92.5689 51.1019 93.1789 50.2266C93.4953 49.7778 93.8116 49.3513 94.1731 48.8576C94.8509 49.7329 95.3254 50.6306 95.8451 51.4834C95.958 51.6629 95.958 51.8425 95.8451 52.022Z" fill="#7F4034"/>
<path id="Vector_52" d="M75.1486 56.735C75.1938 56.937 75.2164 56.9819 75.2164 57.0267C74.6742 59.0017 75.3294 60.64 76.6851 62.0539C77.8148 63.2434 79.2608 63.9615 80.752 64.5899C82.8533 65.4876 85.0224 65.555 87.214 65.0612C89.7672 64.4777 92.1396 63.4678 94.2408 61.8968C95.5061 60.9542 96.7036 59.9667 97.8333 58.8446C98.7597 57.9245 99.5053 56.8696 100.048 55.6802C100.68 54.2887 101.335 52.9197 101.742 51.4385C101.765 51.3487 101.923 51.1916 101.968 51.2141C102.149 51.2814 102.104 51.461 102.058 51.5956C101.539 53.4808 100.838 55.2987 100.07 57.0941C99.4149 58.6875 98.5338 60.1687 97.6074 61.6275C96.8392 62.8394 95.8676 63.8269 94.6701 64.6124C92.9078 65.7794 91.0099 66.7444 88.9764 67.3728C86.8977 68.0012 84.819 68.0461 82.6951 67.5973C81.3395 67.3055 80.029 66.8791 78.8089 66.2731C77.3629 65.555 76.0298 64.5899 75.0131 63.3556C74.0189 62.1437 73.4993 60.7073 73.68 59.1139C73.7704 58.1264 74.2449 57.3634 75.1486 56.735Z" fill="#DB6C57"/>
<path id="Vector_53" d="M81.6784 55.1641C83.1019 55.0968 84.2542 56.2862 84.2768 57.6104C84.3219 58.8447 83.26 59.8995 81.9721 59.922C80.6165 59.9444 79.3964 58.7774 79.3738 57.4308C79.3512 56.1291 80.3453 55.1417 81.6784 55.1641Z" fill="#DB6E58"/>
<path id="Vector_54" d="M75.1261 56.8247C75.1261 57.4531 75.1261 58.0366 75.1035 58.5977C75.0809 59.4056 75.3069 60.1238 75.7362 60.8195C76.3236 61.7621 77.0692 62.5476 78.0182 63.1535C79.5772 64.141 81.2718 64.9265 83.1019 65.2632C84.209 65.4651 85.3387 65.3754 86.491 65.1734C88.1404 64.8816 89.6768 64.3879 91.1907 63.7146C92.5463 63.1087 93.7438 62.2334 94.9639 61.3357C96.1162 60.4829 97.0426 59.4505 98.1045 58.5079C99.0535 57.6551 99.6635 56.5554 100.183 55.4108C100.612 54.4009 101.042 53.4134 101.471 52.4035C101.516 52.2913 101.629 52.2239 101.742 52.2913C101.787 52.3137 101.833 52.4259 101.81 52.4932C101.539 53.2563 101.358 54.0642 100.974 54.8048C99.9347 56.8471 98.8501 58.8894 97.5623 60.7971C96.4777 62.368 94.9865 63.378 93.2467 64.0512C91.0099 64.9265 88.7505 65.6447 86.4007 66.1609C85.7228 66.318 85.0224 66.4077 84.322 66.4975C83.4182 66.5873 82.537 66.2955 81.6559 66.116C80.481 65.8691 79.4642 65.2856 78.4927 64.6123C77.7244 64.0737 76.9788 63.5126 76.3236 62.8169C75.2391 61.6499 74.5161 60.3033 74.1094 58.7548C73.9738 58.2386 74.0642 57.8346 74.3579 57.4531C74.5161 57.2062 74.7646 56.9594 75.1261 56.8247Z" fill="#FFCDDA"/>
<path id="Vector_55" d="M81.7461 59.9218C81.0683 59.7647 80.2549 59.5179 79.803 58.665C79.6675 58.4182 79.5545 58.1713 79.4415 57.9244C79.3512 57.7 79.2834 57.4531 79.4641 57.2512C79.7127 57.0043 79.8708 57.2736 80.0516 57.3858C81.2491 58.1937 82.537 58.2386 83.87 57.7898C83.983 57.7449 84.096 57.6776 84.1863 57.7898C84.3219 57.9244 84.2541 58.0591 84.2089 58.2162C83.757 59.5403 82.7403 59.8769 81.7461 59.9218Z" fill="#FFCED9"/>
</g>
<path id="Vector_56" d="M75.4423 40.2847C74.5838 40.2847 74.5612 41.5863 75.4197 41.6088C76.3009 41.6312 76.3009 40.3071 75.4423 40.2847Z" fill="#FF5D6C"/>
<path id="Vector_57" d="M77.2725 44.01C76.414 44.01 76.3914 45.3117 77.2499 45.3341C78.1085 45.3341 78.1311 44.0325 77.2725 44.01Z" fill="#FF5D6C"/>
<path id="Vector_58" d="M53.0288 26.572C52.1702 26.572 52.1476 27.8737 53.0062 27.8961C53.8647 27.8961 53.8873 26.572 53.0288 26.572Z" fill="#FF5D6C"/>
<path id="Vector_59" d="M48.4422 32.3174C47.5836 32.3174 47.561 33.6191 48.4196 33.6415C49.2782 33.6415 49.3008 32.3398 48.4422 32.3174Z" fill="#FF5D6C"/>
<path id="Vector_60" d="M25.8253 12.5229C24.9667 12.5229 24.9441 13.8246 25.8027 13.8471C26.6839 13.8471 26.6839 12.5229 25.8253 12.5229Z" fill="#FF5D6C"/>
<path id="Vector_61" d="M91.3035 25.1807C90.445 25.1807 90.4224 26.4823 91.2809 26.5048C92.1395 26.5048 92.1621 25.1807 91.3035 25.1807Z" fill="#FF5D6C"/>
<path id="Vector_62" d="M90.9873 30.7239C90.1287 30.7239 90.1061 32.0256 90.9647 32.048C91.8232 32.048 91.8458 30.7239 90.9873 30.7239Z" fill="#FF5D6C"/>
<path id="Vector_63" d="M95.4835 32.093C94.6249 32.093 94.6023 33.3947 95.4609 33.4171C96.3195 33.4171 96.3421 32.093 95.4835 32.093Z" fill="#FF5D6C"/>
<path id="Vector_64" d="M95.8225 69.5723C94.9639 69.5723 94.9413 70.8739 95.7999 70.8964C96.6584 70.8964 96.681 69.5723 95.8225 69.5723Z" fill="#FF5D6C"/>
<path id="Vector_65" d="M76.4139 70.4026C75.5553 70.4026 75.5327 71.7043 76.3913 71.7267C77.2499 71.7267 77.2725 70.4026 76.4139 70.4026Z" fill="#FF5D6C"/>
<path id="Vector_66" d="M30.8638 14.0265C29.4855 14.0041 29.4629 16.1137 30.8412 16.1362C32.2194 16.1586 32.242 14.049 30.8638 14.0265Z" fill="#9CCF56"/>
<path id="Vector_67" d="M59.8071 16.226C58.4289 16.2036 58.4063 18.3132 59.7845 18.3356C61.1402 18.3581 61.1628 16.2485 59.8071 16.226Z" fill="#9CCF56"/>
<path id="Vector_68" d="M57.7963 28.6144C56.418 28.592 56.3954 30.7016 57.7737 30.724C59.1293 30.724 59.1519 28.6144 57.7963 28.6144Z" fill="#9CCF56"/>
<path id="Vector_69" d="M62.8121 30.769C61.4339 30.7465 61.4113 32.8561 62.7896 32.8786C64.1452 32.901 64.1904 30.7914 62.8121 30.769Z" fill="#9CCF56"/>
<path id="Vector_70" d="M80.2776 37.5915C78.8993 37.569 78.8768 39.6787 80.255 39.7011C81.6107 39.7011 81.6333 37.5915 80.2776 37.5915Z" fill="#9CCF56"/>
<path id="Vector_71" d="M86.4006 13.645C85.0224 13.6225 84.9998 15.7321 86.3781 15.7546C87.7563 15.7546 87.7789 13.645 86.4006 13.645Z" fill="#9CCF56"/>
<path id="Vector_72" d="M74.7871 51.506C73.4089 51.4836 73.3863 53.5932 74.7645 53.6157C76.1202 53.6381 76.1654 51.5285 74.7871 51.506Z" fill="#9CCF56"/>
<path id="Vector_73" d="M81.1813 71.6371C79.803 71.6147 79.7804 73.7243 81.1587 73.7468C82.5369 73.7692 82.5595 71.6596 81.1813 71.6371Z" fill="#9CCF56"/>
<path id="Vector_74" d="M93.4049 92.8903C92.0267 92.8679 92.0041 94.9775 93.3823 94.9999C94.7606 95.0224 94.7832 92.9128 93.4049 92.8903Z" fill="#9CCF56"/>
<path id="Vector_75" d="M68.2573 64.3657C66.8791 64.3432 66.8565 66.4528 68.2347 66.4753C69.5904 66.4753 69.613 64.3657 68.2573 64.3657Z" fill="#9CCF56"/>
<g id="Group_8">
<path id="Vector_76" d="M30.2999 72.8343C28.1535 71.353 26.4815 69.4005 25.5777 66.8645C24.8095 64.7324 24.7417 62.5779 25.6455 60.4459C26.3911 58.6729 27.679 57.3937 29.3962 56.5633C31.3845 55.5983 33.4631 55.4412 35.6096 55.8227C37.4171 56.1369 39.0665 56.8326 40.5577 57.865C42.7494 59.3911 44.4214 61.366 45.3026 63.9021C46.0256 65.9892 46.0708 68.0989 45.2122 70.186C44.6247 71.6448 43.6306 72.7669 42.3201 73.6198C40.5352 74.7643 38.5469 75.1683 36.423 75.0112C34.2313 74.8317 32.2204 74.0686 30.2999 72.8343Z" fill="#FFE326"/>
<path id="Vector_77" d="M46.8164 70.3879C46.6808 70.2533 46.3419 70.2533 46.4323 69.9391C46.5226 69.6698 46.7712 69.7595 46.9519 69.7147C48.1042 69.4902 49.2565 69.3331 50.4314 69.2658C51.1545 69.2209 51.8549 69.2882 52.5553 69.4229C52.7813 69.4678 53.0072 69.5351 53.2331 69.6473C53.6398 69.8493 53.7076 70.2084 53.4139 70.5675C53.2105 70.8143 52.9846 70.9939 52.6909 71.1285C52.5101 71.2183 52.352 71.3081 52.126 71.4427C52.3068 71.5774 52.4875 71.555 52.6457 71.5998C53.2331 71.6896 53.7528 71.914 54.2725 72.1834C54.2951 72.1834 54.2951 72.2058 54.3177 72.2058C54.5888 72.4302 54.9277 72.6098 54.8825 73.0362C54.8373 73.4177 54.4758 73.5075 54.1821 73.6197C53.6172 73.8217 53.0298 73.9114 52.4423 73.9563C52.2616 73.9788 52.0808 73.9563 51.8549 74.0685C52.5553 74.4501 53.2331 74.7867 53.8658 75.1234C54.3403 75.3702 54.7921 75.6395 55.1537 76.0211C55.2892 76.1782 55.4248 76.3353 55.4926 76.5148C55.6959 77.031 55.4474 77.5247 54.9277 77.6818C54.634 77.7716 54.3177 77.7491 54.0239 77.7043C53.5043 77.6145 53.0072 77.4574 52.5101 77.3003C52.3972 77.2554 52.3068 77.1881 52.1486 77.2779C52.5553 77.6145 52.962 77.9511 53.3009 78.3327C53.6172 78.7142 53.911 79.0957 54.0013 79.6119C54.0917 80.1954 53.798 80.4872 53.2331 80.4198C52.7587 80.3525 52.3294 80.1505 51.9001 79.9261C51.4934 79.7241 51.0867 79.4997 50.7026 79.2753C50.5896 79.4099 50.7252 79.4997 50.7704 79.5894C51.1319 80.3301 51.3352 81.1156 51.4708 81.901C51.516 82.2377 51.5386 82.5743 51.4708 82.911C51.3578 83.4945 50.9285 83.7189 50.3637 83.4945C49.8214 83.2925 49.3921 82.9334 49.008 82.5294C48.6013 82.1255 48.2398 81.6766 47.9009 81.2053C47.8331 81.1156 47.8105 81.0258 47.6523 80.9809C47.5846 81.1829 47.6072 81.3624 47.6072 81.5644C47.5846 81.901 47.5846 82.2377 47.4716 82.5519C47.1327 83.5394 46.003 83.7862 45.2799 83.0456C44.941 82.6865 44.6473 82.2826 44.3988 81.8562C44.3084 81.6991 44.218 81.542 44.105 81.3624C43.9695 81.6093 43.9469 81.8562 43.8113 82.0581C43.5402 82.4846 43.1335 82.5743 42.7268 82.2601C42.5234 82.103 42.3653 81.901 42.2523 81.6766C41.9812 81.2053 41.7778 80.7116 41.6875 80.173C41.4615 78.9611 41.2808 77.7491 41.3485 76.4924C41.3711 76.1333 41.4163 76.0659 41.7552 76.1333C41.8908 76.1557 41.9812 76.1557 42.0716 76.0659C43.7435 74.2481 45.6415 72.6322 46.8615 70.4553C46.7938 70.4553 46.8164 70.4328 46.8164 70.3879Z" fill="#88B526"/>
<g id="Group_9">
<path id="Vector_78" d="M29.5995 68.6823C29.6899 68.7721 29.7803 68.8619 29.7125 68.9741C29.6447 69.0638 29.5317 69.0638 29.4414 69.0414C29.4188 69.0414 29.4188 69.019 29.3962 69.019C29.2606 68.9292 29.0573 68.9067 29.0347 68.6823C29.0347 68.615 29.0573 68.5477 29.1476 68.5252C29.3284 68.4579 29.464 68.615 29.5995 68.6823Z" fill="#EBC45E"/>
<path id="Vector_79" d="M43.2013 66.6625C43.0884 66.5728 42.885 66.483 43.0206 66.3034C43.1561 66.079 43.3143 66.2586 43.4499 66.3483C43.5854 66.4381 43.721 66.5503 43.5854 66.7074C43.4499 66.9094 43.3143 66.7299 43.2013 66.6625Z" fill="#EDC55D"/>
<path id="Vector_80" d="M42.772 71.1286C42.9075 71.2184 42.9979 71.3082 42.9301 71.4428C42.8623 71.5775 42.7494 71.555 42.6138 71.5102C42.546 71.4877 42.5008 71.4428 42.433 71.4204C42.3201 71.3531 42.2523 71.2408 42.3427 71.1286C42.4104 71.0389 42.5008 71.0389 42.6138 71.0613C42.7042 71.0837 42.7494 71.1286 42.772 71.1286Z" fill="#EDC765"/>
<path id="Vector_81" d="M38.095 59.0096C37.982 58.8974 37.7561 58.83 37.8916 58.6505C38.0046 58.4934 38.1854 58.6056 38.2983 58.6729C38.4339 58.7403 38.5695 58.8749 38.4339 59.032C38.3209 59.1891 38.208 59.032 38.095 59.0096Z" fill="#EAC158"/>
<path id="Vector_82" d="M32.2883 56.8101C32.1979 56.7428 32.1527 56.653 32.1979 56.5632C32.2431 56.4286 32.4916 56.4286 32.6498 56.5408C32.7402 56.6081 32.7854 56.6754 32.7402 56.7876C32.6724 56.9223 32.4464 56.9223 32.2883 56.8101Z" fill="#EEC65E"/>
<path id="Vector_83" d="M38.5017 63.5428C38.4113 63.4755 38.2305 63.4082 38.3435 63.2511C38.4565 63.0716 38.5921 63.1838 38.7276 63.2735C38.8406 63.3409 38.9762 63.4531 38.8632 63.5877C38.7502 63.7224 38.6146 63.6326 38.5017 63.5428Z" fill="#EAC159"/>
<path id="Vector_84" d="M30.5936 72.722C30.6388 72.6995 30.684 72.6322 30.797 72.6995C30.8874 72.9239 30.7518 73.3055 31.2489 73.3279C31.2489 73.081 31.2489 72.8342 31.2263 72.5873C31.2037 72.3404 31.2941 72.1833 31.4748 72.0262C32.5594 71.2183 33.6213 70.3655 34.6832 69.5351C35.0221 69.2882 35.361 69.0638 35.7226 68.7945C35.7451 68.8843 35.7677 68.9291 35.7677 68.974C35.7451 70.5675 35.7226 72.1385 35.7 73.7319C35.7 73.9339 35.6096 74.0236 35.474 74.1359C35.2481 74.3154 34.9769 74.4501 34.7962 74.6969C35.1351 74.9438 35.361 74.6969 35.587 74.5623C35.6096 74.6072 35.6548 74.6296 35.6548 74.652C35.6774 74.8316 35.7451 74.9662 35.9485 74.9214C36.1518 74.8765 36.0841 74.6969 36.0615 74.5847C36.0389 74.2705 36.1518 74.091 36.4004 73.9114C37.3268 73.283 38.2305 72.6098 39.1343 71.9814C39.4732 71.7345 39.7895 71.4652 40.151 71.2856C40.264 71.3978 40.1962 71.5101 40.1736 71.5998C40.0381 72.52 39.9025 73.4401 39.7669 74.3603C39.7443 74.4501 39.654 74.6296 39.8347 74.652C39.9929 74.6969 40.1284 74.6296 40.151 74.4276C40.1736 74.3378 40.1736 74.2256 40.1962 74.1359C40.3318 73.1933 40.49 72.2282 40.6255 71.2856C40.6707 70.9939 40.7611 70.7919 41.0096 70.6348C41.3937 70.3879 41.7552 70.0962 42.1393 69.8493C43.3142 69.1087 44.4214 68.3681 45.5511 67.6275C45.7996 67.4704 45.9352 67.3133 45.7996 66.9991C44.1728 68.0763 42.5009 69.1087 40.9192 70.2308C40.8289 70.0962 40.8741 70.0064 40.8741 69.9391C41.1226 68.3007 41.3711 66.6624 41.5971 65.0241C41.6423 64.6875 41.7778 64.4855 42.0716 64.3059C42.885 63.8122 43.6983 63.2736 44.5117 62.7574C44.6247 62.6901 44.7829 62.6227 44.6699 62.4432C44.5569 62.2412 44.4214 62.331 44.2858 62.4208C44.0599 62.5554 43.8339 62.7125 43.608 62.8472C43.0205 63.2287 42.4331 63.5878 41.7552 64.0142C41.8456 63.3185 41.936 62.6901 42.0264 62.0841C42.1393 61.2986 42.2523 60.5131 42.3879 59.7276C42.4331 59.4808 42.4105 59.2563 42.1167 59.1666C42.0038 59.3461 42.0038 59.5256 41.9812 59.7052C41.7778 61.0966 41.5519 62.5105 41.3711 63.902C41.3259 64.1937 41.2356 64.3957 40.9644 64.5528C39.7443 65.3383 38.5694 66.1911 37.4171 67.0888C37.0556 67.3582 36.6715 67.6275 36.2648 67.9192C36.2422 67.807 36.2196 67.7621 36.2196 67.7172C36.2422 65.8994 36.2874 64.0815 36.31 62.2412C36.31 62.0168 36.4456 61.927 36.6037 61.8148C37.5527 61.1864 38.4791 60.5356 39.4506 59.9521C40.1284 59.5256 40.8289 59.1217 41.4841 58.6055C41.3259 58.3586 41.1904 58.3362 40.9644 58.4933C39.5862 59.4359 38.1176 60.2663 36.7619 61.2313C36.6489 61.3211 36.5585 61.4557 36.3326 61.3884C36.3552 59.7725 36.4004 58.1566 36.4004 56.5408C36.4004 56.3388 36.5134 56.2266 36.6263 56.0919C36.31 55.9348 36.0389 55.8675 35.8355 56.1817C35.7903 56.249 35.7 56.2715 35.6322 56.3163C34.5477 57.0121 33.4857 57.7302 32.4012 58.426C31.8589 58.785 31.3167 59.1441 30.7066 59.5256C30.6388 58.3362 30.5936 57.2589 30.5259 56.1592C30.2095 56.1368 30.1192 56.2715 30.1418 56.5408C30.1869 57.4834 30.2095 58.426 30.2547 59.3685C30.2773 59.6603 30.1869 59.8398 29.9384 59.9969C29.125 60.4907 28.3342 61.0293 27.5434 61.5455C27.1141 61.8372 26.6848 62.1066 26.1878 62.4432C26.0748 61.6128 25.9618 60.8722 25.8488 60.0867C25.5551 60.5356 25.5325 60.6253 25.5777 61.0069C25.6229 61.2986 25.6455 61.6128 25.7133 61.9046C25.8262 62.3983 25.8037 62.8247 25.2388 63.0492C25.2162 63.0492 25.2162 63.0716 25.1936 63.0716C24.9677 63.2063 24.9451 63.3858 25.058 63.6102C25.3518 63.498 25.5325 63.2511 25.8488 63.1614C25.894 63.4082 25.9392 63.6327 25.9618 63.8571C26.1426 65.1363 26.3233 66.3931 26.4815 67.6724C26.5267 67.9417 26.73 68.2559 26.4137 68.5252C26.3685 68.5701 26.4137 68.7047 26.4815 68.7496C26.6396 68.8618 26.6622 69.0638 26.7752 69.2209C26.8656 69.378 26.9334 69.5575 27.1593 69.6473C27.1367 69.378 27.1141 69.1311 27.0689 68.8843C27.0237 68.6149 27.1141 68.4578 27.3401 68.2783C28.1761 67.6724 28.9895 67.0215 29.8028 66.4156C30.0288 66.2585 30.2321 66.0565 30.5033 65.9667C30.5936 66.1687 30.5711 66.3482 30.5711 66.5053C30.6388 68.1661 30.7066 69.8044 30.797 71.4652C30.8196 71.8691 30.7518 72.1385 30.3903 72.3629C30.2773 72.4302 30.0514 72.4975 30.2095 72.6995C30.3225 72.8791 30.4581 72.8342 30.5936 72.722ZM40.6255 65.271C40.7837 65.1588 40.9644 65.069 41.1452 64.9568C41.2356 65.1588 41.1678 65.3159 41.1452 65.473C40.9192 67.0664 40.6707 68.6374 40.4448 70.2308C40.3996 70.4777 40.3544 70.6797 40.1284 70.8368C38.8632 71.712 37.6205 72.6322 36.3552 73.5075C36.31 73.5523 36.2422 73.5748 36.1744 73.5972C36.0615 73.485 36.1067 73.3279 36.1293 73.2157C36.1518 71.7569 36.1744 70.3206 36.197 68.8618C36.197 68.6149 36.2422 68.413 36.4682 68.2559C37.8464 67.2684 39.2021 66.2136 40.6255 65.271ZM30.7066 60.3785C30.7066 60.154 30.7066 59.9745 30.9326 59.8174C32.5368 58.785 34.1184 57.7527 35.7 56.7203C35.7451 56.6754 35.8129 56.6305 35.9033 56.6754C36.0163 56.7652 35.9485 56.8774 35.9485 56.9896C35.9259 58.4708 35.9033 59.9521 35.8807 61.4333C35.8807 61.6128 35.8581 61.7699 35.6774 61.9046C34.0958 62.9594 32.5368 64.0142 30.9552 65.0914C30.8196 64.9568 30.8874 64.7772 30.8648 64.6201C30.8196 63.2063 30.7744 61.7924 30.7066 60.3785ZM27.0463 68.0314C26.9334 67.9641 26.9334 67.8968 26.9108 67.8295C26.7074 66.2809 26.5041 64.7548 26.2781 63.2063C26.2555 63.0267 26.2555 62.8921 26.4363 62.7798C27.679 61.9943 28.8991 61.164 30.1418 60.3785C30.1644 60.356 30.2095 60.356 30.2321 60.356C30.3451 60.4682 30.2999 60.6029 30.3225 60.7376C30.3903 62.1963 30.4355 63.6327 30.5033 65.0914C30.5033 65.3383 30.4581 65.4954 30.2547 65.6525C29.1702 66.3931 28.1083 67.2011 27.0463 68.0314ZM31.1133 70.2308C31.0455 68.8394 31.0003 67.4255 30.9326 66.034C30.9326 65.8096 30.91 65.6076 31.1359 65.473C32.6497 64.463 34.1635 63.4307 35.6774 62.3983C35.7 62.3759 35.7451 62.3759 35.8581 62.331C35.8581 62.9818 35.8355 63.5653 35.8355 64.1488C35.8355 65.3832 35.8129 66.64 35.7903 67.8968C35.7903 68.1212 35.7451 68.3007 35.5192 68.4578C34.1184 69.4229 32.8079 70.4777 31.4748 71.5101C31.3844 71.5774 31.3167 71.6447 31.1811 71.6672C31.1585 71.1734 31.1359 70.7021 31.1133 70.2308Z" fill="#E9BF53"/>
<path id="Vector_85" d="M33.3953 66.5951C33.3275 66.5503 33.2823 66.5278 33.2597 66.4829C33.192 66.4156 33.1694 66.3483 33.2146 66.2585C33.2597 66.1687 33.3501 66.1687 33.4405 66.1912C33.5535 66.2585 33.6664 66.3258 33.7568 66.4156C33.8246 66.4829 33.8472 66.5503 33.7794 66.64C33.7342 66.6849 33.6664 66.7074 33.5987 66.6849C33.5083 66.6849 33.4405 66.64 33.3953 66.5951Z" fill="#EAC158"/>
<path id="Vector_86" d="M33.4857 61.2986C33.4631 61.2761 33.3953 61.2312 33.3501 61.1864C33.2823 61.119 33.2372 61.0517 33.2823 60.9619C33.3501 60.8497 33.4405 60.8497 33.5309 60.917C33.5987 60.9395 33.6439 60.9844 33.689 61.0293C33.802 61.0966 33.9376 61.2088 33.8246 61.3435C33.7568 61.4781 33.6213 61.3883 33.4857 61.2986Z" fill="#E9BF53"/>
<path id="Vector_87" d="M38.931 69.2657C38.7502 69.1535 38.6372 68.929 38.7276 68.8168C38.818 68.7046 38.931 68.7271 39.0439 68.7944C39.2473 68.929 39.3602 69.1759 39.2473 69.2881C39.1569 69.3555 39.0665 69.333 38.931 69.2657Z" fill="#EDC86A"/>
<path id="Vector_88" d="M28.1534 63.8122C28.0631 63.7449 27.9501 63.6551 28.0179 63.5205C28.1082 63.3634 28.2438 63.3858 28.3794 63.4756C28.4923 63.5429 28.5375 63.6551 28.4698 63.7674C28.3794 63.9245 28.2664 63.8796 28.1534 63.8122Z" fill="#EDC55D"/>
</g>
<path id="Vector_89" d="M30.8648 56.1144C30.8196 56.4286 30.7744 56.7428 30.7518 57.0345C30.6162 58.426 30.7292 59.7725 31.1359 61.1191C31.5878 62.6228 32.3786 63.9469 33.192 65.271C33.802 66.2585 34.5025 67.1562 35.2029 68.0763C35.5418 68.5252 35.9711 68.8843 36.423 69.2209C36.7619 69.4678 37.0556 69.782 37.4171 70.0064C38.6372 70.8143 39.9477 71.3305 41.4163 71.5325C42.1393 71.6447 42.8624 71.5325 43.5854 71.4652C43.8791 71.4427 44.1954 71.4203 44.5343 71.3979C44.5343 71.5998 44.3988 71.7345 44.2858 71.8692C43.4272 72.8791 42.4331 73.687 41.213 74.2256C40.4448 74.5623 39.6314 74.7643 38.7954 74.8989C37.2364 75.1458 35.7226 74.9887 34.2087 74.6072C33.305 74.3827 32.469 74.0012 31.633 73.5972C31.0003 73.283 30.4129 72.924 29.8706 72.4975C28.6731 71.5998 27.6564 70.5226 26.8204 69.2882C26.12 68.2559 25.6681 67.1113 25.3066 65.9443C25.0129 65.069 24.9677 64.1713 25.0129 63.2736C25.058 62.2861 25.2614 61.3211 25.6681 60.3785C26.2103 59.0768 27.1367 58.0669 28.2664 57.2365C28.8991 56.7652 29.5995 56.451 30.3451 56.1817C30.4807 56.1368 30.6162 56.0919 30.8648 56.1144Z" fill="#FBE2EA"/>
<path id="Vector_90" d="M46.0481 78.6246C45.9125 78.7143 45.9125 78.8041 45.89 78.8939C45.664 80.016 44.218 80.5771 43.156 79.8589C42.9753 79.7242 42.7719 79.6345 42.6364 79.4549C42.5008 79.2754 42.3426 79.2081 42.1845 79.4325C42.1619 79.4774 42.1167 79.5223 42.0941 79.5447C41.6648 79.8813 41.5744 79.8589 41.4615 79.3427C41.2355 78.4001 41.2581 77.4351 41.2807 76.4701C41.2807 76.1783 41.3711 76.0885 41.6422 76.1783C41.823 76.2232 41.9134 76.2007 42.0263 76.0661C42.3201 75.7519 42.659 75.4601 42.9075 75.101C42.9979 74.9888 43.0883 74.8991 43.2916 74.8542C43.382 75.303 43.2916 75.6846 42.9979 75.9988C42.9075 76.0885 42.7945 76.1783 42.6816 76.2456C42.4782 76.3803 42.433 76.5823 42.5234 76.7843C42.8623 77.4575 43.269 78.0635 43.9017 78.5123C44.0372 78.6021 44.1728 78.6919 44.3309 78.6021C44.4891 78.5123 44.4891 78.3328 44.4665 78.1981C44.4213 77.8391 44.3987 77.48 44.2406 77.1658C44.0372 76.7169 44.2406 76.3803 44.5117 76.0661C44.6925 75.8641 44.941 75.909 45.1669 75.9763C45.3477 76.0436 45.5059 76.1334 45.6188 76.2905C45.9577 76.7618 46.4774 77.0536 46.9519 77.3902C47.1326 77.5024 47.3134 77.6371 47.5167 77.5249C47.7427 77.4126 47.7879 77.1658 47.7427 76.9414C47.6297 76.1334 47.4716 75.3479 46.9293 74.6746C46.7033 74.4053 46.4548 74.136 46.2515 73.8443C46.0933 73.6423 45.9803 73.5974 45.7544 73.732C45.2573 74.0238 44.6925 74.1585 44.1502 74.338C44.0146 74.3829 43.8565 74.4502 43.7209 74.3829C43.6983 74.2707 43.7661 74.2258 43.8339 74.1585C44.6247 73.3954 45.3703 72.6099 45.9803 71.6898C46.0255 71.6224 46.0481 71.5775 46.0933 71.5327C46.2515 71.3307 46.3644 71.3307 46.5452 71.5102C46.6808 71.6449 46.7485 71.802 46.7937 72.004C46.8163 72.1386 46.8841 72.2508 47.0649 72.2733C47.7879 72.3855 48.5109 72.6548 49.2791 72.565C49.6406 72.5201 49.6632 72.4977 49.4824 72.1835C49.0983 71.5327 48.6013 70.994 47.946 70.6125C47.7879 70.5227 47.6297 70.4778 47.4716 70.4778C47.0423 70.4778 46.8389 70.2534 46.7033 69.8495C47.1326 69.6699 47.5619 69.6026 47.9912 69.5801C48.6013 69.5353 49.1887 69.3782 49.7988 69.3557C50.1829 69.3557 50.2055 69.4006 50.1829 69.7821C50.1603 70.0066 49.8214 70.1188 50.0021 70.3656C50.1151 70.5227 50.2733 70.6574 50.3862 70.8369C50.7025 71.2409 50.9511 71.6673 51.1318 72.1611C51.4482 72.969 50.9963 73.7994 50.1377 74.0014C49.5954 74.136 49.0306 74.1585 48.4205 74.136C48.5561 74.4502 48.6916 74.742 48.8272 75.0337C49.1435 75.7519 49.2565 76.5149 49.2791 77.3004C49.2791 78.3552 48.1946 79.5447 46.7937 79.0285C46.5452 78.8714 46.2741 78.7817 46.0481 78.6246Z" fill="#FBE2EA"/>
<path id="Vector_91" d="M46.4775 72.8119C46.5679 73.0812 46.7261 73.2832 46.8616 73.5076C47.3813 74.338 47.8558 75.1908 48.2399 76.0885C48.4432 76.5374 48.5562 77.0087 48.5562 77.5249C48.5336 78.4001 48.0139 78.7368 47.2005 78.445C46.7035 78.2655 46.3645 77.884 46.003 77.5249C45.7545 77.278 45.5286 77.0087 45.2574 76.7169C45.1896 76.8965 45.2574 77.0311 45.28 77.1658C45.3478 77.6595 45.4608 78.1308 45.4834 78.6246C45.4834 78.8939 45.4834 79.1632 45.3252 79.4101C45.0767 79.8365 44.67 79.9487 44.2407 79.6794C43.9018 79.4774 43.6758 79.1407 43.4499 78.8265C43.0206 78.2206 42.7043 77.5922 42.3879 76.9189C42.2298 77.0087 42.2524 77.1658 42.2298 77.278C42.1394 77.7269 41.9361 78.1084 41.6423 78.445C41.1678 79.0285 40.5352 78.9836 40.1285 78.3552C40.0155 78.1757 39.9252 77.9737 39.8574 77.7493C39.5637 76.874 39.3829 75.9763 39.3151 75.0786C39.2925 74.6971 39.3829 74.54 39.767 74.4727C40.9645 74.2482 41.9587 73.6423 42.8624 72.9241C43.6306 72.3182 44.0825 71.4653 44.5118 70.635C44.9637 69.7821 45.3026 68.8844 45.3704 67.8969C45.393 67.695 45.506 67.6052 45.7093 67.6052C46.6131 67.6052 47.5169 67.5603 48.398 67.5603C48.7821 67.5603 49.1662 67.6276 49.5503 67.7847C49.8215 67.8969 49.9796 68.0989 50.0248 68.3907C50.07 68.6824 49.8893 68.862 49.6633 69.0191C49.2566 69.2884 48.7821 69.4455 48.3077 69.5801C48.0365 69.6475 47.7654 69.7372 47.4491 69.827C47.5846 70.0066 47.7654 70.0514 47.901 70.1188C48.6692 70.5227 49.4148 70.9716 50.0248 71.6C50.2282 71.802 50.3863 72.0488 50.4993 72.3182C50.7252 72.9241 50.4315 73.373 49.7763 73.3954C49.4148 73.4179 49.0533 73.373 48.7143 73.2832C47.9913 73.1485 47.2683 72.9914 46.4775 72.8119Z" fill="#98C12B"/>
<path id="Vector_92" d="M46.0707 69.7371C45.6414 69.9615 45.6866 70.4328 45.6866 70.9041C45.6866 71.4203 45.3703 71.8242 44.941 72.0936C44.6925 72.2506 44.5795 72.4302 44.5343 72.7219C44.3988 73.5523 43.9243 74.0236 43.0883 74.1807C42.7946 74.2256 42.546 74.3378 42.3879 74.6071C42.2523 74.8091 42.0715 75.0111 41.8682 75.1682C41.1 75.819 40.0155 75.5722 39.4958 74.9662C39.315 74.7418 39.3376 74.6071 39.5862 74.5847C40.2866 74.4949 40.8966 74.1583 41.5067 73.8441C42.2975 73.4177 43.0657 72.9688 43.5402 72.1609C43.6757 71.9365 43.8339 71.712 43.9921 71.4876C44.7377 70.4328 45.1896 69.2882 45.3251 68.009C45.3477 67.8294 45.4381 67.6723 45.6188 67.6723C45.8448 67.6723 46.1159 67.5601 46.2515 67.8519C46.5 68.3905 46.4548 68.9291 46.2289 69.4453C46.2289 69.5351 46.1837 69.6024 46.0707 69.7371Z" fill="#FBE2EA"/>
</g>
</g>
</g>
<defs>
<clipPath id="clip0_11_459">
<rect width="112" height="95" fill="white"/>
</clipPath>
</defs>
</svg>
